<svg xmlns="http://www.w3.org/2000/svg" xmlns:xlink="http://www.w3.org/1999/xlink" width="500" zoomAndPan="magnify" viewBox="0 0 375 135.000003" height="180" preserveAspectRatio="xMidYMid meet" version="1.0"><defs><g/><clipPath id="8baedb9fb5"><path d="M 1.378906 3.574219 L 98.160156 3.574219 L 98.160156 130.136719 L 1.378906 130.136719 Z M 1.378906 3.574219 " clip-rule="nonzero"/></clipPath></defs><g clip-path="url(#8baedb9fb5)"><path fill="#b8860b" d="M 1.378906 129.910156 L 50.621094 3.613281 L 98.011719 130.386719 L 50.621094 91.445312 Z M 1.378906 129.910156 " fill-opacity="1" fill-rule="nonzero"/></g><g fill="#ffffff" fill-opacity="1"><g transform="translate(98.021376, 87.84927)"><g><path d="M 17.375 0 C 16.332031 0 15.476562 -0.320312 14.8125 -0.96875 C 14.144531 -1.625 13.8125 -2.429688 13.8125 -3.390625 L 13.8125 -35.703125 L 21.046875 -35.703125 L 21.046875 -3.390625 C 21.046875 -2.429688 20.703125 -1.625 20.015625 -0.96875 C 19.328125 -0.320312 18.445312 0 17.375 0 Z M 5.0625 -32.578125 C 4.101562 -32.578125 3.296875 -32.875 2.640625 -33.46875 C 1.992188 -34.0625 1.671875 -34.84375 1.671875 -35.8125 C 1.671875 -36.769531 1.992188 -37.535156 2.640625 -38.109375 C 3.296875 -38.691406 4.101562 -38.984375 5.0625 -38.984375 L 29.796875 -38.984375 C 30.753906 -38.984375 31.554688 -38.6875 32.203125 -38.09375 C 32.859375 -37.5 33.1875 -36.71875 33.1875 -35.75 C 33.1875 -34.78125 32.859375 -34.007812 32.203125 -33.4375 C 31.554688 -32.863281 30.753906 -32.578125 29.796875 -32.578125 Z M 5.0625 -32.578125 "/></g></g></g><g fill="#ffffff" fill-opacity="1"><g transform="translate(129.539063, 87.84927)"><g><path d="M 6.953125 0 C 5.992188 0 5.195312 -0.320312 4.5625 -0.96875 C 3.9375 -1.625 3.625 -2.429688 3.625 -3.390625 L 3.625 -26.390625 C 3.625 -27.359375 3.9375 -28.164062 4.5625 -28.8125 C 5.195312 -29.46875 5.992188 -29.796875 6.953125 -29.796875 C 7.921875 -29.796875 8.71875 -29.46875 9.34375 -28.8125 C 9.976562 -28.164062 10.296875 -27.359375 10.296875 -26.390625 L 10.296875 -21.15625 L 9.90625 -24.890625 C 10.320312 -25.785156 10.851562 -26.578125 11.5 -27.265625 C 12.144531 -27.953125 12.875 -28.523438 13.6875 -28.984375 C 14.507812 -29.453125 15.382812 -29.796875 16.3125 -30.015625 C 17.238281 -30.234375 18.164062 -30.34375 19.09375 -30.34375 C 20.207031 -30.34375 21.144531 -30.023438 21.90625 -29.390625 C 22.664062 -28.765625 23.046875 -28.023438 23.046875 -27.171875 C 23.046875 -25.953125 22.726562 -25.070312 22.09375 -24.53125 C 21.46875 -23.988281 20.785156 -23.71875 20.046875 -23.71875 C 19.335938 -23.71875 18.695312 -23.847656 18.125 -24.109375 C 17.550781 -24.367188 16.894531 -24.5 16.15625 -24.5 C 15.476562 -24.5 14.796875 -24.34375 14.109375 -24.03125 C 13.429688 -23.71875 12.800781 -23.222656 12.21875 -22.546875 C 11.644531 -21.878906 11.179688 -21.050781 10.828125 -20.0625 C 10.472656 -19.082031 10.296875 -17.925781 10.296875 -16.59375 L 10.296875 -3.390625 C 10.296875 -2.429688 9.976562 -1.625 9.34375 -0.96875 C 8.71875 -0.320312 7.921875 0 6.953125 0 Z M 6.953125 0 "/></g></g></g><g fill="#ffffff" fill-opacity="1"><g transform="translate(153.038197, 87.84927)"><g><path d="M 28.015625 -30.34375 C 28.972656 -30.34375 29.769531 -30.023438 30.40625 -29.390625 C 31.039062 -28.765625 31.359375 -27.953125 31.359375 -26.953125 L 31.359375 -3.390625 C 31.359375 -2.429688 31.039062 -1.625 30.40625 -0.96875 C 29.769531 -0.320312 28.972656 0 28.015625 0 C 27.046875 0 26.242188 -0.320312 25.609375 -0.96875 C 24.984375 -1.625 24.671875 -2.429688 24.671875 -3.390625 L 24.671875 -6.125 L 25.890625 -5.625 C 25.890625 -5.144531 25.628906 -4.5625 25.109375 -3.875 C 24.585938 -3.1875 23.878906 -2.503906 22.984375 -1.828125 C 22.097656 -1.160156 21.050781 -0.59375 19.84375 -0.125 C 18.644531 0.332031 17.335938 0.5625 15.921875 0.5625 C 13.359375 0.5625 11.035156 -0.09375 8.953125 -1.40625 C 6.878906 -2.726562 5.238281 -4.550781 4.03125 -6.875 C 2.832031 -9.195312 2.234375 -11.863281 2.234375 -14.875 C 2.234375 -17.914062 2.832031 -20.59375 4.03125 -22.90625 C 5.238281 -25.226562 6.863281 -27.046875 8.90625 -28.359375 C 10.945312 -29.679688 13.210938 -30.34375 15.703125 -30.34375 C 17.296875 -30.34375 18.757812 -30.101562 20.09375 -29.625 C 21.4375 -29.144531 22.597656 -28.53125 23.578125 -27.78125 C 24.566406 -27.039062 25.328125 -26.289062 25.859375 -25.53125 C 26.398438 -24.769531 26.671875 -24.128906 26.671875 -23.609375 L 24.671875 -22.890625 L 24.671875 -26.953125 C 24.671875 -27.921875 24.984375 -28.726562 25.609375 -29.375 C 26.242188 -30.019531 27.046875 -30.34375 28.015625 -30.34375 Z M 16.765625 -5.5625 C 18.398438 -5.5625 19.828125 -5.96875 21.046875 -6.78125 C 22.273438 -7.601562 23.234375 -8.71875 23.921875 -10.125 C 24.609375 -11.539062 24.953125 -13.125 24.953125 -14.875 C 24.953125 -16.65625 24.609375 -18.25 23.921875 -19.65625 C 23.234375 -21.070312 22.273438 -22.1875 21.046875 -23 C 19.828125 -23.8125 18.398438 -24.21875 16.765625 -24.21875 C 15.171875 -24.21875 13.757812 -23.8125 12.53125 -23 C 11.300781 -22.1875 10.34375 -21.070312 9.65625 -19.65625 C 8.96875 -18.25 8.625 -16.65625 8.625 -14.875 C 8.625 -13.125 8.96875 -11.539062 9.65625 -10.125 C 10.34375 -8.71875 11.300781 -7.601562 12.53125 -6.78125 C 13.757812 -5.96875 15.171875 -5.5625 16.765625 -5.5625 Z M 16.765625 -5.5625 "/></g></g></g><g fill="#ffffff" fill-opacity="1"><g transform="translate(187.340252, 87.84927)"><g><path d="M 4.953125 -29.796875 C 5.660156 -29.796875 6.3125 -29.617188 6.90625 -29.265625 C 7.5 -28.910156 7.941406 -28.378906 8.234375 -27.671875 L 16.421875 -8.96875 L 15.203125 -8.40625 L 23.5625 -27.625 C 24.1875 -29.101562 25.164062 -29.804688 26.5 -29.734375 C 27.4375 -29.734375 28.191406 -29.445312 28.765625 -28.875 C 29.335938 -28.300781 29.625 -27.585938 29.625 -26.734375 C 29.625 -26.472656 29.578125 -26.191406 29.484375 -25.890625 C 29.390625 -25.597656 29.289062 -25.320312 29.1875 -25.0625 L 18.765625 -2.109375 C 18.171875 -0.773438 17.222656 -0.0703125 15.921875 0 C 15.222656 0.113281 14.546875 -0.015625 13.890625 -0.390625 C 13.242188 -0.765625 12.753906 -1.335938 12.421875 -2.109375 L 2.0625 -25.0625 C 1.988281 -25.25 1.90625 -25.488281 1.8125 -25.78125 C 1.71875 -26.082031 1.671875 -26.4375 1.671875 -26.84375 C 1.671875 -27.507812 1.96875 -28.164062 2.5625 -28.8125 C 3.15625 -29.46875 3.953125 -29.796875 4.953125 -29.796875 Z M 4.953125 -29.796875 "/></g></g></g><g fill="#ffffff" fill-opacity="1"><g transform="translate(218.356909, 87.84927)"><g><path d="M 17.65625 0.5625 C 14.5 0.5625 11.757812 -0.09375 9.4375 -1.40625 C 7.113281 -2.726562 5.332031 -4.519531 4.09375 -6.78125 C 2.851562 -9.050781 2.234375 -11.617188 2.234375 -14.484375 C 2.234375 -17.816406 2.910156 -20.660156 4.265625 -23.015625 C 5.617188 -25.378906 7.390625 -27.191406 9.578125 -28.453125 C 11.765625 -29.710938 14.085938 -30.34375 16.546875 -30.34375 C 18.429688 -30.34375 20.21875 -29.953125 21.90625 -29.171875 C 23.601562 -28.398438 25.097656 -27.335938 26.390625 -25.984375 C 27.691406 -24.628906 28.722656 -23.054688 29.484375 -21.265625 C 30.242188 -19.484375 30.625 -17.59375 30.625 -15.59375 C 30.59375 -14.695312 30.238281 -13.96875 29.5625 -13.40625 C 28.894531 -12.851562 28.117188 -12.578125 27.234375 -12.578125 L 5.953125 -12.578125 L 4.28125 -18.15625 L 24.71875 -18.15625 L 23.5 -17.046875 L 23.5 -18.546875 C 23.425781 -19.617188 23.046875 -20.582031 22.359375 -21.4375 C 21.671875 -22.289062 20.816406 -22.96875 19.796875 -23.46875 C 18.773438 -23.96875 17.691406 -24.21875 16.546875 -24.21875 C 15.429688 -24.21875 14.390625 -24.066406 13.421875 -23.765625 C 12.453125 -23.472656 11.613281 -22.972656 10.90625 -22.265625 C 10.207031 -21.566406 9.648438 -20.625 9.234375 -19.4375 C 8.828125 -18.25 8.625 -16.742188 8.625 -14.921875 C 8.625 -12.921875 9.039062 -11.222656 9.875 -9.828125 C 10.71875 -8.429688 11.796875 -7.367188 13.109375 -6.640625 C 14.429688 -5.921875 15.832031 -5.5625 17.3125 -5.5625 C 18.6875 -5.5625 19.78125 -5.671875 20.59375 -5.890625 C 21.414062 -6.117188 22.078125 -6.390625 22.578125 -6.703125 C 23.078125 -7.023438 23.535156 -7.296875 23.953125 -7.515625 C 24.617188 -7.847656 25.25 -8.015625 25.84375 -8.015625 C 26.65625 -8.015625 27.328125 -7.734375 27.859375 -7.171875 C 28.398438 -6.617188 28.671875 -5.972656 28.671875 -5.234375 C 28.671875 -4.234375 28.15625 -3.320312 27.125 -2.5 C 26.15625 -1.6875 24.796875 -0.972656 23.046875 -0.359375 C 21.304688 0.253906 19.507812 0.5625 17.65625 0.5625 Z M 17.65625 0.5625 "/></g></g></g><g fill="#ffffff" fill-opacity="1"><g transform="translate(251.211173, 87.84927)"><g><path d="M 10.859375 -3.390625 C 10.859375 -2.429688 10.53125 -1.625 9.875 -0.96875 C 9.226562 -0.320312 8.425781 0 7.46875 0 C 6.53125 0 5.742188 -0.320312 5.109375 -0.96875 C 4.484375 -1.625 4.171875 -2.429688 4.171875 -3.390625 L 4.171875 -37.8125 C 4.171875 -38.78125 4.492188 -39.585938 5.140625 -40.234375 C 5.796875 -40.878906 6.609375 -41.203125 7.578125 -41.203125 C 8.535156 -41.203125 9.320312 -40.878906 9.9375 -40.234375 C 10.550781 -39.585938 10.859375 -38.78125 10.859375 -37.8125 Z M 10.859375 -3.390625 "/></g></g></g><g fill="#ffffff" fill-opacity="1"><g transform="translate(266.246172, 87.84927)"><g><path d="M 18.484375 -30.234375 L 6.453125 -1.953125 C 6.191406 -1.242188 5.789062 -0.691406 5.25 -0.296875 C 4.71875 0.0859375 4.140625 0.28125 3.515625 0.28125 C 2.503906 0.28125 1.757812 0.00390625 1.28125 -0.546875 C 0.800781 -1.109375 0.5625 -1.800781 0.5625 -2.625 C 0.5625 -2.957031 0.613281 -3.304688 0.71875 -3.671875 L 14.59375 -36.96875 C 14.882812 -37.71875 15.335938 -38.296875 15.953125 -38.703125 C 16.566406 -39.109375 17.226562 -39.273438 17.9375 -39.203125 C 18.601562 -39.203125 19.222656 -39.003906 19.796875 -38.609375 C 20.367188 -38.222656 20.785156 -37.675781 21.046875 -36.96875 L 34.75 -4.34375 C 34.9375 -3.863281 35.03125 -3.414062 35.03125 -3 C 35.03125 -2 34.703125 -1.203125 34.046875 -0.609375 C 33.398438 -0.015625 32.6875 0.28125 31.90625 0.28125 C 31.238281 0.28125 30.632812 0.078125 30.09375 -0.328125 C 29.5625 -0.742188 29.144531 -1.300781 28.84375 -2 L 16.875 -29.90625 Z M 8.1875 -8.75 L 11.25 -15.140625 L 26.28125 -15.140625 L 27.34375 -8.75 Z M 8.1875 -8.75 "/></g></g></g><g fill="#ffffff" fill-opacity="1"><g transform="translate(301.829015, 87.84927)"><g><path d="M 19.046875 -30.34375 C 21.640625 -30.34375 23.96875 -29.679688 26.03125 -28.359375 C 28.09375 -27.046875 29.726562 -25.238281 30.9375 -22.9375 C 32.144531 -20.632812 32.75 -17.960938 32.75 -14.921875 C 32.75 -11.878906 32.144531 -9.195312 30.9375 -6.875 C 29.726562 -4.550781 28.109375 -2.726562 26.078125 -1.40625 C 24.054688 -0.09375 21.785156 0.5625 19.265625 0.5625 C 17.785156 0.5625 16.394531 0.320312 15.09375 -0.15625 C 13.789062 -0.644531 12.644531 -1.257812 11.65625 -2 C 10.675781 -2.75 9.914062 -3.503906 9.375 -4.265625 C 8.84375 -5.023438 8.578125 -5.664062 8.578125 -6.1875 L 10.296875 -6.90625 L 10.296875 7.734375 C 10.296875 8.703125 9.976562 9.507812 9.34375 10.15625 C 8.71875 10.8125 7.921875 11.140625 6.953125 11.140625 C 5.992188 11.140625 5.195312 10.820312 4.5625 10.1875 C 3.9375 9.5625 3.625 8.742188 3.625 7.734375 L 3.625 -26.390625 C 3.625 -27.359375 3.9375 -28.164062 4.5625 -28.8125 C 5.195312 -29.46875 5.992188 -29.796875 6.953125 -29.796875 C 7.921875 -29.796875 8.71875 -29.46875 9.34375 -28.8125 C 9.976562 -28.164062 10.296875 -27.359375 10.296875 -26.390625 L 10.296875 -23.671875 L 9.359375 -24.171875 C 9.359375 -24.648438 9.617188 -25.234375 10.140625 -25.921875 C 10.660156 -26.609375 11.363281 -27.296875 12.25 -27.984375 C 13.144531 -28.671875 14.175781 -29.234375 15.34375 -29.671875 C 16.507812 -30.117188 17.742188 -30.34375 19.046875 -30.34375 Z M 18.203125 -24.21875 C 16.578125 -24.21875 15.148438 -23.8125 13.921875 -23 C 12.691406 -22.1875 11.734375 -21.082031 11.046875 -19.6875 C 10.367188 -18.289062 10.03125 -16.703125 10.03125 -14.921875 C 10.03125 -13.179688 10.367188 -11.59375 11.046875 -10.15625 C 11.734375 -8.726562 12.691406 -7.601562 13.921875 -6.78125 C 15.148438 -5.96875 16.578125 -5.5625 18.203125 -5.5625 C 19.835938 -5.5625 21.257812 -5.96875 22.46875 -6.78125 C 23.675781 -7.601562 24.625 -8.726562 25.3125 -10.15625 C 26 -11.59375 26.34375 -13.179688 26.34375 -14.921875 C 26.34375 -16.703125 26 -18.289062 25.3125 -19.6875 C 24.625 -21.082031 23.675781 -22.1875 22.46875 -23 C 21.257812 -23.8125 19.835938 -24.21875 18.203125 -24.21875 Z M 18.203125 -24.21875 "/></g></g></g><g fill="#ffffff" fill-opacity="1"><g transform="translate(336.799308, 87.84927)"><g><path d="M 19.046875 -30.34375 C 21.640625 -30.34375 23.96875 -29.679688 26.03125 -28.359375 C 28.09375 -27.046875 29.726562 -25.238281 30.9375 -22.9375 C 32.144531 -20.632812 32.75 -17.960938 32.75 -14.921875 C 32.75 -11.878906 32.144531 -9.195312 30.9375 -6.875 C 29.726562 -4.550781 28.109375 -2.726562 26.078125 -1.40625 C 24.054688 -0.09375 21.785156 0.5625 19.265625 0.5625 C 17.785156 0.5625 16.394531 0.320312 15.09375 -0.15625 C 13.789062 -0.644531 12.644531 -1.257812 11.65625 -2 C 10.675781 -2.75 9.914062 -3.503906 9.375 -4.265625 C 8.84375 -5.023438 8.578125 -5.664062 8.578125 -6.1875 L 10.296875 -6.90625 L 10.296875 7.734375 C 10.296875 8.703125 9.976562 9.507812 9.34375 10.15625 C 8.71875 10.8125 7.921875 11.140625 6.953125 11.140625 C 5.992188 11.140625 5.195312 10.820312 4.5625 10.1875 C 3.9375 9.5625 3.625 8.742188 3.625 7.734375 L 3.625 -26.390625 C 3.625 -27.359375 3.9375 -28.164062 4.5625 -28.8125 C 5.195312 -29.46875 5.992188 -29.796875 6.953125 -29.796875 C 7.921875 -29.796875 8.71875 -29.46875 9.34375 -28.8125 C 9.976562 -28.164062 10.296875 -27.359375 10.296875 -26.390625 L 10.296875 -23.671875 L 9.359375 -24.171875 C 9.359375 -24.648438 9.617188 -25.234375 10.140625 -25.921875 C 10.660156 -26.609375 11.363281 -27.296875 12.25 -27.984375 C 13.144531 -28.671875 14.175781 -29.234375 15.34375 -29.671875 C 16.507812 -30.117188 17.742188 -30.34375 19.046875 -30.34375 Z M 18.203125 -24.21875 C 16.578125 -24.21875 15.148438 -23.8125 13.921875 -23 C 12.691406 -22.1875 11.734375 -21.082031 11.046875 -19.6875 C 10.367188 -18.289062 10.03125 -16.703125 10.03125 -14.921875 C 10.03125 -13.179688 10.367188 -11.59375 11.046875 -10.15625 C 11.734375 -8.726562 12.691406 -7.601562 13.921875 -6.78125 C 15.148438 -5.96875 16.578125 -5.5625 18.203125 -5.5625 C 19.835938 -5.5625 21.257812 -5.96875 22.46875 -6.78125 C 23.675781 -7.601562 24.625 -8.726562 25.3125 -10.15625 C 26 -11.59375 26.34375 -13.179688 26.34375 -14.921875 C 26.34375 -16.703125 26 -18.289062 25.3125 -19.6875 C 24.625 -21.082031 23.675781 -22.1875 22.46875 -23 C 21.257812 -23.8125 19.835938 -24.21875 18.203125 -24.21875 Z M 18.203125 -24.21875 "/></g></g></g><g fill="#b8860b" fill-opacity="1"><g transform="translate(253.612582, 123.682662)"><g><path d="M 3.75 0 C 3.457031 0 3.21875 -0.0859375 3.03125 -0.265625 C 2.84375 -0.441406 2.75 -0.644531 2.75 -0.875 L 2.75 -19.625 C 2.75 -19.851562 2.835938 -20.054688 3.015625 -20.234375 C 3.191406 -20.410156 3.394531 -20.5 3.625 -20.5 L 11.53125 -20.5 C 12.644531 -20.5 13.640625 -20.257812 14.515625 -19.78125 C 15.398438 -19.300781 16.085938 -18.640625 16.578125 -17.796875 C 17.078125 -16.960938 17.328125 -16.019531 17.328125 -14.96875 C 17.328125 -14.101562 17.171875 -13.304688 16.859375 -12.578125 C 16.546875 -11.859375 16.109375 -11.25 15.546875 -10.75 C 14.984375 -10.257812 14.347656 -9.894531 13.640625 -9.65625 L 12.625 -9.984375 C 13.34375 -9.921875 14.015625 -9.691406 14.640625 -9.296875 C 15.265625 -8.898438 15.765625 -8.351562 16.140625 -7.65625 C 16.523438 -6.96875 16.726562 -6.132812 16.75 -5.15625 C 16.769531 -4.3125 16.8125 -3.65625 16.875 -3.1875 C 16.945312 -2.71875 17.050781 -2.363281 17.1875 -2.125 C 17.320312 -1.894531 17.5 -1.710938 17.71875 -1.578125 C 17.914062 -1.460938 18.046875 -1.296875 18.109375 -1.078125 C 18.179688 -0.867188 18.15625 -0.664062 18.03125 -0.46875 C 17.957031 -0.3125 17.847656 -0.195312 17.703125 -0.125 C 17.554688 -0.0625 17.40625 -0.03125 17.25 -0.03125 C 17.09375 -0.03125 16.9375 -0.0664062 16.78125 -0.140625 C 16.507812 -0.296875 16.226562 -0.539062 15.9375 -0.875 C 15.65625 -1.207031 15.421875 -1.695312 15.234375 -2.34375 C 15.054688 -2.988281 14.96875 -3.882812 14.96875 -5.03125 C 14.96875 -5.789062 14.84375 -6.414062 14.59375 -6.90625 C 14.351562 -7.394531 14.039062 -7.769531 13.65625 -8.03125 C 13.28125 -8.300781 12.863281 -8.488281 12.40625 -8.59375 C 11.945312 -8.695312 11.507812 -8.75 11.09375 -8.75 L 4.28125 -8.75 L 4.59375 -9.171875 L 4.59375 -0.875 C 4.59375 -0.644531 4.515625 -0.441406 4.359375 -0.265625 C 4.203125 -0.0859375 4 0 3.75 0 Z M 4.28125 -10.359375 L 11.625 -10.359375 C 12.289062 -10.421875 12.914062 -10.640625 13.5 -11.015625 C 14.082031 -11.398438 14.550781 -11.925781 14.90625 -12.59375 C 15.269531 -13.257812 15.453125 -14.03125 15.453125 -14.90625 C 15.453125 -16.019531 15.078125 -16.941406 14.328125 -17.671875 C 13.578125 -18.398438 12.597656 -18.765625 11.390625 -18.765625 L 4.390625 -18.765625 L 4.59375 -19.171875 L 4.59375 -9.953125 Z M 4.28125 -10.359375 "/></g></g></g><g fill="#b8860b" fill-opacity="1"><g transform="translate(273.08323, 123.682662)"><g><path d="M 9.078125 0.296875 C 7.578125 0.296875 6.25 -0.0234375 5.09375 -0.671875 C 3.945312 -1.316406 3.050781 -2.210938 2.40625 -3.359375 C 1.757812 -4.515625 1.4375 -5.863281 1.4375 -7.40625 C 1.4375 -9.0625 1.757812 -10.472656 2.40625 -11.640625 C 3.0625 -12.816406 3.910156 -13.722656 4.953125 -14.359375 C 6.003906 -14.992188 7.113281 -15.3125 8.28125 -15.3125 C 9.144531 -15.3125 9.976562 -15.160156 10.78125 -14.859375 C 11.59375 -14.554688 12.316406 -14.109375 12.953125 -13.515625 C 13.585938 -12.921875 14.09375 -12.191406 14.46875 -11.328125 C 14.851562 -10.472656 15.066406 -9.476562 15.109375 -8.34375 C 15.085938 -8.113281 14.988281 -7.914062 14.8125 -7.75 C 14.632812 -7.582031 14.429688 -7.5 14.203125 -7.5 L 2.453125 -7.5 L 2.109375 -9.078125 L 13.640625 -9.078125 L 13.265625 -8.71875 L 13.265625 -9.3125 C 13.179688 -10.226562 12.882812 -11.007812 12.375 -11.65625 C 11.875 -12.300781 11.257812 -12.785156 10.53125 -13.109375 C 9.8125 -13.441406 9.0625 -13.609375 8.28125 -13.609375 C 7.695312 -13.609375 7.097656 -13.488281 6.484375 -13.25 C 5.867188 -13.019531 5.3125 -12.65625 4.8125 -12.15625 C 4.3125 -11.664062 3.90625 -11.035156 3.59375 -10.265625 C 3.289062 -9.492188 3.140625 -8.582031 3.140625 -7.53125 C 3.140625 -6.375 3.367188 -5.328125 3.828125 -4.390625 C 4.296875 -3.453125 4.972656 -2.707031 5.859375 -2.15625 C 6.753906 -1.613281 7.816406 -1.34375 9.046875 -1.34375 C 9.734375 -1.34375 10.347656 -1.441406 10.890625 -1.640625 C 11.441406 -1.835938 11.921875 -2.097656 12.328125 -2.421875 C 12.734375 -2.742188 13.078125 -3.078125 13.359375 -3.421875 C 13.566406 -3.597656 13.78125 -3.6875 14 -3.6875 C 14.195312 -3.6875 14.367188 -3.609375 14.515625 -3.453125 C 14.660156 -3.296875 14.734375 -3.117188 14.734375 -2.921875 C 14.734375 -2.691406 14.632812 -2.488281 14.4375 -2.3125 C 13.851562 -1.613281 13.09375 -1.003906 12.15625 -0.484375 C 11.21875 0.0351562 10.191406 0.296875 9.078125 0.296875 Z M 9.078125 0.296875 "/></g></g></g><g fill="#b8860b" fill-opacity="1"><g transform="translate(289.625978, 123.682662)"><g><path d="M 20.09375 -15.28125 C 20.300781 -15.28125 20.5 -15.203125 20.6875 -15.046875 C 20.875 -14.890625 20.96875 -14.675781 20.96875 -14.40625 C 20.96875 -14.34375 20.957031 -14.269531 20.9375 -14.1875 C 20.914062 -14.113281 20.894531 -14.0625 20.875 -14.03125 L 16.375 -0.5625 C 16.289062 -0.382812 16.164062 -0.238281 16 -0.125 C 15.832031 -0.0195312 15.660156 0.0195312 15.484375 0 C 15.140625 -0.0195312 14.878906 -0.207031 14.703125 -0.5625 L 10.578125 -10.28125 L 11.09375 -10.15625 L 7.4375 -0.5625 C 7.28125 -0.207031 7.015625 -0.0195312 6.640625 0 C 6.472656 0.0195312 6.300781 -0.0195312 6.125 -0.125 C 5.945312 -0.238281 5.828125 -0.382812 5.765625 -0.5625 L 1.140625 -14.03125 C 1.078125 -14.164062 1.046875 -14.289062 1.046875 -14.40625 C 1.046875 -14.65625 1.128906 -14.863281 1.296875 -15.03125 C 1.460938 -15.195312 1.6875 -15.28125 1.96875 -15.28125 C 2.132812 -15.28125 2.289062 -15.226562 2.4375 -15.125 C 2.59375 -15.03125 2.695312 -14.890625 2.75 -14.703125 L 6.90625 -2.21875 L 6.359375 -2.25 L 10.125 -11.765625 C 10.28125 -12.140625 10.554688 -12.328125 10.953125 -12.328125 C 11.148438 -12.328125 11.316406 -12.273438 11.453125 -12.171875 C 11.585938 -12.078125 11.691406 -11.941406 11.765625 -11.765625 L 15.78125 -2.21875 L 15.140625 -2.203125 L 19.265625 -14.703125 C 19.378906 -15.085938 19.65625 -15.28125 20.09375 -15.28125 Z M 20.09375 -15.28125 "/></g></g></g><g fill="#b8860b" fill-opacity="1"><g transform="translate(311.761056, 123.682662)"><g><path d="M 14.578125 -14.96875 C 14.835938 -14.96875 15.046875 -14.878906 15.203125 -14.703125 C 15.367188 -14.523438 15.453125 -14.3125 15.453125 -14.0625 L 15.453125 -0.875 C 15.453125 -0.644531 15.363281 -0.441406 15.1875 -0.265625 C 15.019531 -0.0859375 14.816406 0 14.578125 0 C 14.328125 0 14.117188 -0.0859375 13.953125 -0.265625 C 13.785156 -0.441406 13.703125 -0.644531 13.703125 -0.875 L 13.703125 -4.359375 L 14.203125 -4.59375 C 14.203125 -4.050781 14.050781 -3.492188 13.75 -2.921875 C 13.445312 -2.359375 13.03125 -1.832031 12.5 -1.34375 C 11.976562 -0.851562 11.359375 -0.457031 10.640625 -0.15625 C 9.929688 0.144531 9.164062 0.296875 8.34375 0.296875 C 7.019531 0.296875 5.832031 -0.0390625 4.78125 -0.71875 C 3.738281 -1.40625 2.921875 -2.34375 2.328125 -3.53125 C 1.734375 -4.726562 1.4375 -6.066406 1.4375 -7.546875 C 1.4375 -9.078125 1.738281 -10.421875 2.34375 -11.578125 C 2.945312 -12.742188 3.765625 -13.65625 4.796875 -14.3125 C 5.835938 -14.976562 7.007812 -15.3125 8.3125 -15.3125 C 9.15625 -15.3125 9.941406 -15.164062 10.671875 -14.875 C 11.398438 -14.582031 12.035156 -14.179688 12.578125 -13.671875 C 13.128906 -13.160156 13.554688 -12.578125 13.859375 -11.921875 C 14.160156 -11.273438 14.3125 -10.597656 14.3125 -9.890625 L 13.703125 -10.34375 L 13.703125 -14.0625 C 13.703125 -14.3125 13.785156 -14.523438 13.953125 -14.703125 C 14.117188 -14.878906 14.328125 -14.96875 14.578125 -14.96875 Z M 8.484375 -1.34375 C 9.523438 -1.34375 10.441406 -1.609375 11.234375 -2.140625 C 12.035156 -2.679688 12.664062 -3.425781 13.125 -4.375 C 13.59375 -5.320312 13.828125 -6.378906 13.828125 -7.546875 C 13.828125 -8.703125 13.59375 -9.738281 13.125 -10.65625 C 12.664062 -11.570312 12.035156 -12.300781 11.234375 -12.84375 C 10.441406 -13.394531 9.523438 -13.671875 8.484375 -13.671875 C 7.472656 -13.671875 6.5625 -13.40625 5.75 -12.875 C 4.9375 -12.351562 4.300781 -11.632812 3.84375 -10.71875 C 3.382812 -9.800781 3.15625 -8.742188 3.15625 -7.546875 C 3.15625 -6.378906 3.382812 -5.320312 3.84375 -4.375 C 4.300781 -3.425781 4.929688 -2.679688 5.734375 -2.140625 C 6.535156 -1.609375 7.453125 -1.34375 8.484375 -1.34375 Z M 8.484375 -1.34375 "/></g></g></g><g fill="#b8860b" fill-opacity="1"><g transform="translate(329.504244, 123.682662)"><g><path d="M 3.1875 0 C 2.914062 0 2.703125 -0.0859375 2.546875 -0.265625 C 2.390625 -0.441406 2.3125 -0.644531 2.3125 -0.875 L 2.3125 -14 C 2.3125 -14.226562 2.394531 -14.429688 2.5625 -14.609375 C 2.726562 -14.785156 2.9375 -14.875 3.1875 -14.875 C 3.445312 -14.875 3.65625 -14.785156 3.8125 -14.609375 C 3.976562 -14.429688 4.0625 -14.226562 4.0625 -14 L 4.0625 -9.609375 L 3.625 -9.515625 C 3.6875 -10.203125 3.859375 -10.878906 4.140625 -11.546875 C 4.421875 -12.222656 4.804688 -12.84375 5.296875 -13.40625 C 5.785156 -13.976562 6.363281 -14.4375 7.03125 -14.78125 C 7.707031 -15.132812 8.46875 -15.3125 9.3125 -15.3125 C 9.664062 -15.3125 10.003906 -15.238281 10.328125 -15.09375 C 10.660156 -14.945312 10.828125 -14.707031 10.828125 -14.375 C 10.828125 -14.082031 10.75 -13.859375 10.59375 -13.703125 C 10.4375 -13.546875 10.253906 -13.46875 10.046875 -13.46875 C 9.867188 -13.46875 9.675781 -13.515625 9.46875 -13.609375 C 9.269531 -13.710938 9.003906 -13.765625 8.671875 -13.765625 C 8.117188 -13.765625 7.566406 -13.601562 7.015625 -13.28125 C 6.472656 -12.957031 5.976562 -12.519531 5.53125 -11.96875 C 5.082031 -11.425781 4.722656 -10.816406 4.453125 -10.140625 C 4.191406 -9.472656 4.0625 -8.796875 4.0625 -8.109375 L 4.0625 -0.875 C 4.0625 -0.644531 3.972656 -0.441406 3.796875 -0.265625 C 3.628906 -0.0859375 3.425781 0 3.1875 0 Z M 3.1875 0 "/></g></g></g><g fill="#b8860b" fill-opacity="1"><g transform="translate(340.13255, 123.682662)"><g><path d="M 14.578125 -21.671875 C 14.835938 -21.671875 15.046875 -21.585938 15.203125 -21.421875 C 15.367188 -21.253906 15.453125 -21.046875 15.453125 -20.796875 L 15.453125 -0.875 C 15.453125 -0.644531 15.363281 -0.441406 15.1875 -0.265625 C 15.019531 -0.0859375 14.816406 0 14.578125 0 C 14.328125 0 14.117188 -0.0859375 13.953125 -0.265625 C 13.785156 -0.441406 13.703125 -0.644531 13.703125 -0.875 L 13.703125 -4.359375 L 14.203125 -4.765625 C 14.203125 -4.222656 14.054688 -3.65625 13.765625 -3.0625 C 13.472656 -2.46875 13.054688 -1.914062 12.515625 -1.40625 C 11.984375 -0.894531 11.359375 -0.484375 10.640625 -0.171875 C 9.929688 0.140625 9.164062 0.296875 8.34375 0.296875 C 7.039062 0.296875 5.863281 -0.0390625 4.8125 -0.71875 C 3.769531 -1.40625 2.945312 -2.332031 2.34375 -3.5 C 1.738281 -4.675781 1.4375 -6.019531 1.4375 -7.53125 C 1.4375 -9.007812 1.738281 -10.335938 2.34375 -11.515625 C 2.945312 -12.703125 3.765625 -13.628906 4.796875 -14.296875 C 5.835938 -14.972656 7.007812 -15.3125 8.3125 -15.3125 C 9.113281 -15.3125 9.875 -15.164062 10.59375 -14.875 C 11.320312 -14.582031 11.960938 -14.179688 12.515625 -13.671875 C 13.078125 -13.160156 13.515625 -12.578125 13.828125 -11.921875 C 14.148438 -11.273438 14.3125 -10.597656 14.3125 -9.890625 L 13.703125 -10.34375 L 13.703125 -20.796875 C 13.703125 -21.023438 13.785156 -21.226562 13.953125 -21.40625 C 14.117188 -21.582031 14.328125 -21.671875 14.578125 -21.671875 Z M 8.484375 -1.34375 C 9.546875 -1.34375 10.46875 -1.609375 11.25 -2.140625 C 12.039062 -2.679688 12.664062 -3.414062 13.125 -4.34375 C 13.59375 -5.269531 13.828125 -6.332031 13.828125 -7.53125 C 13.828125 -8.695312 13.59375 -9.742188 13.125 -10.671875 C 12.664062 -11.597656 12.035156 -12.328125 11.234375 -12.859375 C 10.441406 -13.398438 9.523438 -13.671875 8.484375 -13.671875 C 7.472656 -13.671875 6.5625 -13.398438 5.75 -12.859375 C 4.9375 -12.328125 4.300781 -11.597656 3.84375 -10.671875 C 3.382812 -9.742188 3.15625 -8.695312 3.15625 -7.53125 C 3.15625 -6.351562 3.382812 -5.296875 3.84375 -4.359375 C 4.300781 -3.421875 4.9375 -2.679688 5.75 -2.140625 C 6.5625 -1.609375 7.472656 -1.34375 8.484375 -1.34375 Z M 8.484375 -1.34375 "/></g></g></g><g fill="#b8860b" fill-opacity="1"><g transform="translate(357.875738, 123.682662)"><g><path d="M 1.46875 -2.375 C 1.3125 -2.601562 1.238281 -2.828125 1.25 -3.046875 C 1.257812 -3.273438 1.378906 -3.460938 1.609375 -3.609375 C 1.765625 -3.742188 1.941406 -3.800781 2.140625 -3.78125 C 2.347656 -3.757812 2.539062 -3.660156 2.71875 -3.484375 C 3.25 -2.796875 3.890625 -2.242188 4.640625 -1.828125 C 5.390625 -1.410156 6.28125 -1.203125 7.3125 -1.203125 C 7.863281 -1.203125 8.40625 -1.289062 8.9375 -1.46875 C 9.476562 -1.65625 9.925781 -1.941406 10.28125 -2.328125 C 10.632812 -2.710938 10.8125 -3.195312 10.8125 -3.78125 C 10.8125 -4.382812 10.632812 -4.867188 10.28125 -5.234375 C 9.925781 -5.609375 9.46875 -5.898438 8.90625 -6.109375 C 8.351562 -6.328125 7.765625 -6.515625 7.140625 -6.671875 C 6.484375 -6.847656 5.84375 -7.046875 5.21875 -7.265625 C 4.59375 -7.492188 4.039062 -7.78125 3.5625 -8.125 C 3.082031 -8.46875 2.695312 -8.882812 2.40625 -9.375 C 2.113281 -9.863281 1.96875 -10.457031 1.96875 -11.15625 C 1.96875 -11.976562 2.191406 -12.703125 2.640625 -13.328125 C 3.085938 -13.953125 3.695312 -14.4375 4.46875 -14.78125 C 5.238281 -15.132812 6.113281 -15.3125 7.09375 -15.3125 C 7.570312 -15.3125 8.09375 -15.25 8.65625 -15.125 C 9.226562 -15 9.785156 -14.789062 10.328125 -14.5 C 10.878906 -14.207031 11.367188 -13.804688 11.796875 -13.296875 C 11.972656 -13.117188 12.0625 -12.914062 12.0625 -12.6875 C 12.0625 -12.46875 11.960938 -12.269531 11.765625 -12.09375 C 11.609375 -11.976562 11.425781 -11.921875 11.21875 -11.921875 C 11.019531 -11.921875 10.851562 -12 10.71875 -12.15625 C 10.25 -12.675781 9.691406 -13.070312 9.046875 -13.34375 C 8.398438 -13.625 7.707031 -13.765625 6.96875 -13.765625 C 6.40625 -13.765625 5.875 -13.671875 5.375 -13.484375 C 4.875 -13.296875 4.457031 -13.015625 4.125 -12.640625 C 3.789062 -12.273438 3.625 -11.789062 3.625 -11.1875 C 3.664062 -10.625 3.863281 -10.164062 4.21875 -9.8125 C 4.582031 -9.457031 5.0625 -9.160156 5.65625 -8.921875 C 6.257812 -8.691406 6.929688 -8.476562 7.671875 -8.28125 C 8.296875 -8.125 8.894531 -7.9375 9.46875 -7.71875 C 10.050781 -7.507812 10.5625 -7.242188 11 -6.921875 C 11.4375 -6.597656 11.785156 -6.191406 12.046875 -5.703125 C 12.304688 -5.222656 12.4375 -4.609375 12.4375 -3.859375 C 12.4375 -3.003906 12.195312 -2.265625 11.71875 -1.640625 C 11.25 -1.015625 10.613281 -0.535156 9.8125 -0.203125 C 9.007812 0.128906 8.117188 0.296875 7.140625 0.296875 C 6.085938 0.296875 5.066406 0.09375 4.078125 -0.3125 C 3.097656 -0.726562 2.226562 -1.414062 1.46875 -2.375 Z M 1.46875 -2.375 "/></g></g></g></svg>