<svg xmlns="http://www.w3.org/2000/svg" xmlns:xlink="http://www.w3.org/1999/xlink" width="500" zoomAndPan="magnify" viewBox="0 0 375 135.000003" height="180" preserveAspectRatio="xMidYMid meet" version="1.0"><defs><g/><clipPath id="e47cf34fa2"><path d="M 1.378906 3.574219 L 98.160156 3.574219 L 98.160156 130.136719 L 1.378906 130.136719 Z M 1.378906 3.574219 " clip-rule="nonzero"/></clipPath></defs><g clip-path="url(#e47cf34fa2)"><path fill="#ff7a00" d="M 1.378906 129.910156 L 50.621094 3.613281 L 98.011719 130.386719 L 50.621094 91.445312 Z M 1.378906 129.910156 " fill-opacity="1" fill-rule="nonzero"/></g><g fill="#0a2a5b" fill-opacity="1"><g transform="translate(98.91321, 87.84927)"><g><path d="M 17.375 0 C 16.332031 0 15.476562 -0.320312 14.8125 -0.96875 C 14.144531 -1.625 13.8125 -2.429688 13.8125 -3.390625 L 13.8125 -35.703125 L 21.046875 -35.703125 L 21.046875 -3.390625 C 21.046875 -2.429688 20.703125 -1.625 20.015625 -0.96875 C 19.328125 -0.320312 18.445312 0 17.375 0 Z M 5.0625 -32.578125 C 4.101562 -32.578125 3.296875 -32.875 2.640625 -33.46875 C 1.992188 -34.0625 1.671875 -34.84375 1.671875 -35.8125 C 1.671875 -36.769531 1.992188 -37.535156 2.640625 -38.109375 C 3.296875 -38.691406 4.101562 -38.984375 5.0625 -38.984375 L 29.796875 -38.984375 C 30.753906 -38.984375 31.554688 -38.6875 32.203125 -38.09375 C 32.859375 -37.5 33.1875 -36.71875 33.1875 -35.75 C 33.1875 -34.78125 32.859375 -34.007812 32.203125 -33.4375 C 31.554688 -32.863281 30.753906 -32.578125 29.796875 -32.578125 Z M 5.0625 -32.578125 "/></g></g></g><g fill="#0a2a5b" fill-opacity="1"><g transform="translate(130.430897, 87.84927)"><g><path d="M 6.953125 0 C 5.992188 0 5.195312 -0.320312 4.5625 -0.96875 C 3.9375 -1.625 3.625 -2.429688 3.625 -3.390625 L 3.625 -26.390625 C 3.625 -27.359375 3.9375 -28.164062 4.5625 -28.8125 C 5.195312 -29.46875 5.992188 -29.796875 6.953125 -29.796875 C 7.921875 -29.796875 8.71875 -29.46875 9.34375 -28.8125 C 9.976562 -28.164062 10.296875 -27.359375 10.296875 -26.390625 L 10.296875 -21.15625 L 9.90625 -24.890625 C 10.320312 -25.785156 10.851562 -26.578125 11.5 -27.265625 C 12.144531 -27.953125 12.875 -28.523438 13.6875 -28.984375 C 14.507812 -29.453125 15.382812 -29.796875 16.3125 -30.015625 C 17.238281 -30.234375 18.164062 -30.34375 19.09375 -30.34375 C 20.207031 -30.34375 21.144531 -30.023438 21.90625 -29.390625 C 22.664062 -28.765625 23.046875 -28.023438 23.046875 -27.171875 C 23.046875 -25.953125 22.726562 -25.070312 22.09375 -24.53125 C 21.46875 -23.988281 20.785156 -23.71875 20.046875 -23.71875 C 19.335938 -23.71875 18.695312 -23.847656 18.125 -24.109375 C 17.550781 -24.367188 16.894531 -24.5 16.15625 -24.5 C 15.476562 -24.5 14.796875 -24.34375 14.109375 -24.03125 C 13.429688 -23.71875 12.800781 -23.222656 12.21875 -22.546875 C 11.644531 -21.878906 11.179688 -21.050781 10.828125 -20.0625 C 10.472656 -19.082031 10.296875 -17.925781 10.296875 -16.59375 L 10.296875 -3.390625 C 10.296875 -2.429688 9.976562 -1.625 9.34375 -0.96875 C 8.71875 -0.320312 7.921875 0 6.953125 0 Z M 6.953125 0 "/></g></g></g><g fill="#0a2a5b" fill-opacity="1"><g transform="translate(153.930031, 87.84927)"><g><path d="M 28.015625 -30.34375 C 28.972656 -30.34375 29.769531 -30.023438 30.40625 -29.390625 C 31.039062 -28.765625 31.359375 -27.953125 31.359375 -26.953125 L 31.359375 -3.390625 C 31.359375 -2.429688 31.039062 -1.625 30.40625 -0.96875 C 29.769531 -0.320312 28.972656 0 28.015625 0 C 27.046875 0 26.242188 -0.320312 25.609375 -0.96875 C 24.984375 -1.625 24.671875 -2.429688 24.671875 -3.390625 L 24.671875 -6.125 L 25.890625 -5.625 C 25.890625 -5.144531 25.628906 -4.5625 25.109375 -3.875 C 24.585938 -3.1875 23.878906 -2.503906 22.984375 -1.828125 C 22.097656 -1.160156 21.050781 -0.59375 19.84375 -0.125 C 18.644531 0.332031 17.335938 0.5625 15.921875 0.5625 C 13.359375 0.5625 11.035156 -0.09375 8.953125 -1.40625 C 6.878906 -2.726562 5.238281 -4.550781 4.03125 -6.875 C 2.832031 -9.195312 2.234375 -11.863281 2.234375 -14.875 C 2.234375 -17.914062 2.832031 -20.59375 4.03125 -22.90625 C 5.238281 -25.226562 6.863281 -27.046875 8.90625 -28.359375 C 10.945312 -29.679688 13.210938 -30.34375 15.703125 -30.34375 C 17.296875 -30.34375 18.757812 -30.101562 20.09375 -29.625 C 21.4375 -29.144531 22.597656 -28.53125 23.578125 -27.78125 C 24.566406 -27.039062 25.328125 -26.289062 25.859375 -25.53125 C 26.398438 -24.769531 26.671875 -24.128906 26.671875 -23.609375 L 24.671875 -22.890625 L 24.671875 -26.953125 C 24.671875 -27.921875 24.984375 -28.726562 25.609375 -29.375 C 26.242188 -30.019531 27.046875 -30.34375 28.015625 -30.34375 Z M 16.765625 -5.5625 C 18.398438 -5.5625 19.828125 -5.96875 21.046875 -6.78125 C 22.273438 -7.601562 23.234375 -8.71875 23.921875 -10.125 C 24.609375 -11.539062 24.953125 -13.125 24.953125 -14.875 C 24.953125 -16.65625 24.609375 -18.25 23.921875 -19.65625 C 23.234375 -21.070312 22.273438 -22.1875 21.046875 -23 C 19.828125 -23.8125 18.398438 -24.21875 16.765625 -24.21875 C 15.171875 -24.21875 13.757812 -23.8125 12.53125 -23 C 11.300781 -22.1875 10.34375 -21.070312 9.65625 -19.65625 C 8.96875 -18.25 8.625 -16.65625 8.625 -14.875 C 8.625 -13.125 8.96875 -11.539062 9.65625 -10.125 C 10.34375 -8.71875 11.300781 -7.601562 12.53125 -6.78125 C 13.757812 -5.96875 15.171875 -5.5625 16.765625 -5.5625 Z M 16.765625 -5.5625 "/></g></g></g><g fill="#0a2a5b" fill-opacity="1"><g transform="translate(188.232086, 87.84927)"><g><path d="M 4.953125 -29.796875 C 5.660156 -29.796875 6.3125 -29.617188 6.90625 -29.265625 C 7.5 -28.910156 7.941406 -28.378906 8.234375 -27.671875 L 16.421875 -8.96875 L 15.203125 -8.40625 L 23.5625 -27.625 C 24.1875 -29.101562 25.164062 -29.804688 26.5 -29.734375 C 27.4375 -29.734375 28.191406 -29.445312 28.765625 -28.875 C 29.335938 -28.300781 29.625 -27.585938 29.625 -26.734375 C 29.625 -26.472656 29.578125 -26.191406 29.484375 -25.890625 C 29.390625 -25.597656 29.289062 -25.320312 29.1875 -25.0625 L 18.765625 -2.109375 C 18.171875 -0.773438 17.222656 -0.0703125 15.921875 0 C 15.222656 0.113281 14.546875 -0.015625 13.890625 -0.390625 C 13.242188 -0.765625 12.753906 -1.335938 12.421875 -2.109375 L 2.0625 -25.0625 C 1.988281 -25.25 1.90625 -25.488281 1.8125 -25.78125 C 1.71875 -26.082031 1.671875 -26.4375 1.671875 -26.84375 C 1.671875 -27.507812 1.96875 -28.164062 2.5625 -28.8125 C 3.15625 -29.46875 3.953125 -29.796875 4.953125 -29.796875 Z M 4.953125 -29.796875 "/></g></g></g><g fill="#0a2a5b" fill-opacity="1"><g transform="translate(219.248743, 87.84927)"><g><path d="M 17.65625 0.5625 C 14.5 0.5625 11.757812 -0.09375 9.4375 -1.40625 C 7.113281 -2.726562 5.332031 -4.519531 4.09375 -6.78125 C 2.851562 -9.050781 2.234375 -11.617188 2.234375 -14.484375 C 2.234375 -17.816406 2.910156 -20.660156 4.265625 -23.015625 C 5.617188 -25.378906 7.390625 -27.191406 9.578125 -28.453125 C 11.765625 -29.710938 14.085938 -30.34375 16.546875 -30.34375 C 18.429688 -30.34375 20.21875 -29.953125 21.90625 -29.171875 C 23.601562 -28.398438 25.097656 -27.335938 26.390625 -25.984375 C 27.691406 -24.628906 28.722656 -23.054688 29.484375 -21.265625 C 30.242188 -19.484375 30.625 -17.59375 30.625 -15.59375 C 30.59375 -14.695312 30.238281 -13.96875 29.5625 -13.40625 C 28.894531 -12.851562 28.117188 -12.578125 27.234375 -12.578125 L 5.953125 -12.578125 L 4.28125 -18.15625 L 24.71875 -18.15625 L 23.5 -17.046875 L 23.5 -18.546875 C 23.425781 -19.617188 23.046875 -20.582031 22.359375 -21.4375 C 21.671875 -22.289062 20.816406 -22.96875 19.796875 -23.46875 C 18.773438 -23.96875 17.691406 -24.21875 16.546875 -24.21875 C 15.429688 -24.21875 14.390625 -24.066406 13.421875 -23.765625 C 12.453125 -23.472656 11.613281 -22.972656 10.90625 -22.265625 C 10.207031 -21.566406 9.648438 -20.625 9.234375 -19.4375 C 8.828125 -18.25 8.625 -16.742188 8.625 -14.921875 C 8.625 -12.921875 9.039062 -11.222656 9.875 -9.828125 C 10.71875 -8.429688 11.796875 -7.367188 13.109375 -6.640625 C 14.429688 -5.921875 15.832031 -5.5625 17.3125 -5.5625 C 18.6875 -5.5625 19.78125 -5.671875 20.59375 -5.890625 C 21.414062 -6.117188 22.078125 -6.390625 22.578125 -6.703125 C 23.078125 -7.023438 23.535156 -7.296875 23.953125 -7.515625 C 24.617188 -7.847656 25.25 -8.015625 25.84375 -8.015625 C 26.65625 -8.015625 27.328125 -7.734375 27.859375 -7.171875 C 28.398438 -6.617188 28.671875 -5.972656 28.671875 -5.234375 C 28.671875 -4.234375 28.15625 -3.320312 27.125 -2.5 C 26.15625 -1.6875 24.796875 -0.972656 23.046875 -0.359375 C 21.304688 0.253906 19.507812 0.5625 17.65625 0.5625 Z M 17.65625 0.5625 "/></g></g></g><g fill="#0a2a5b" fill-opacity="1"><g transform="translate(252.103007, 87.84927)"><g><path d="M 10.859375 -3.390625 C 10.859375 -2.429688 10.53125 -1.625 9.875 -0.96875 C 9.226562 -0.320312 8.425781 0 7.46875 0 C 6.53125 0 5.742188 -0.320312 5.109375 -0.96875 C 4.484375 -1.625 4.171875 -2.429688 4.171875 -3.390625 L 4.171875 -37.8125 C 4.171875 -38.78125 4.492188 -39.585938 5.140625 -40.234375 C 5.796875 -40.878906 6.609375 -41.203125 7.578125 -41.203125 C 8.535156 -41.203125 9.320312 -40.878906 9.9375 -40.234375 C 10.550781 -39.585938 10.859375 -38.78125 10.859375 -37.8125 Z M 10.859375 -3.390625 "/></g></g></g><g fill="#0a2a5b" fill-opacity="1"><g transform="translate(266.024255, 87.84927)"><g><path d="M 31.46875 -37.09375 C 32.425781 -36.601562 32.988281 -35.835938 33.15625 -34.796875 C 33.320312 -33.765625 33.054688 -32.820312 32.359375 -31.96875 C 31.867188 -31.300781 31.242188 -30.925781 30.484375 -30.84375 C 29.722656 -30.769531 28.953125 -30.921875 28.171875 -31.296875 C 27.285156 -31.703125 26.347656 -32.015625 25.359375 -32.234375 C 24.378906 -32.460938 23.351562 -32.578125 22.28125 -32.578125 C 20.269531 -32.578125 18.472656 -32.257812 16.890625 -31.625 C 15.316406 -31 13.972656 -30.097656 12.859375 -28.921875 C 11.742188 -27.753906 10.898438 -26.375 10.328125 -24.78125 C 9.753906 -23.1875 9.46875 -21.421875 9.46875 -19.484375 C 9.46875 -17.222656 9.789062 -15.253906 10.4375 -13.578125 C 11.09375 -11.910156 11.992188 -10.519531 13.140625 -9.40625 C 14.296875 -8.289062 15.648438 -7.460938 17.203125 -6.921875 C 18.765625 -6.390625 20.457031 -6.125 22.28125 -6.125 C 23.28125 -6.125 24.28125 -6.21875 25.28125 -6.40625 C 26.28125 -6.59375 27.242188 -6.925781 28.171875 -7.40625 C 28.953125 -7.78125 29.722656 -7.910156 30.484375 -7.796875 C 31.242188 -7.679688 31.882812 -7.289062 32.40625 -6.625 C 33.15625 -5.695312 33.425781 -4.738281 33.21875 -3.75 C 33.007812 -2.769531 32.441406 -2.054688 31.515625 -1.609375 C 30.554688 -1.128906 29.566406 -0.726562 28.546875 -0.40625 C 27.523438 -0.09375 26.492188 0.144531 25.453125 0.3125 C 24.410156 0.476562 23.351562 0.5625 22.28125 0.5625 C 19.601562 0.5625 17.066406 0.132812 14.671875 -0.71875 C 12.273438 -1.570312 10.140625 -2.832031 8.265625 -4.5 C 6.390625 -6.175781 4.914062 -8.265625 3.84375 -10.765625 C 2.769531 -13.273438 2.234375 -16.179688 2.234375 -19.484375 C 2.234375 -22.347656 2.722656 -24.984375 3.703125 -27.390625 C 4.679688 -29.804688 6.070312 -31.894531 7.875 -33.65625 C 9.675781 -35.425781 11.800781 -36.800781 14.25 -37.78125 C 16.707031 -38.769531 19.382812 -39.265625 22.28125 -39.265625 C 23.90625 -39.265625 25.5 -39.078125 27.0625 -38.703125 C 28.625 -38.328125 30.09375 -37.789062 31.46875 -37.09375 Z M 31.46875 -37.09375 "/></g></g></g><g fill="#0a2a5b" fill-opacity="1"><g transform="translate(300.93886, 87.84927)"><g><path d="M 28.015625 -30.34375 C 28.972656 -30.34375 29.769531 -30.023438 30.40625 -29.390625 C 31.039062 -28.765625 31.359375 -27.953125 31.359375 -26.953125 L 31.359375 -3.390625 C 31.359375 -2.429688 31.039062 -1.625 30.40625 -0.96875 C 29.769531 -0.320312 28.972656 0 28.015625 0 C 27.046875 0 26.242188 -0.320312 25.609375 -0.96875 C 24.984375 -1.625 24.671875 -2.429688 24.671875 -3.390625 L 24.671875 -6.125 L 25.890625 -5.625 C 25.890625 -5.144531 25.628906 -4.5625 25.109375 -3.875 C 24.585938 -3.1875 23.878906 -2.503906 22.984375 -1.828125 C 22.097656 -1.160156 21.050781 -0.59375 19.84375 -0.125 C 18.644531 0.332031 17.335938 0.5625 15.921875 0.5625 C 13.359375 0.5625 11.035156 -0.09375 8.953125 -1.40625 C 6.878906 -2.726562 5.238281 -4.550781 4.03125 -6.875 C 2.832031 -9.195312 2.234375 -11.863281 2.234375 -14.875 C 2.234375 -17.914062 2.832031 -20.59375 4.03125 -22.90625 C 5.238281 -25.226562 6.863281 -27.046875 8.90625 -28.359375 C 10.945312 -29.679688 13.210938 -30.34375 15.703125 -30.34375 C 17.296875 -30.34375 18.757812 -30.101562 20.09375 -29.625 C 21.4375 -29.144531 22.597656 -28.53125 23.578125 -27.78125 C 24.566406 -27.039062 25.328125 -26.289062 25.859375 -25.53125 C 26.398438 -24.769531 26.671875 -24.128906 26.671875 -23.609375 L 24.671875 -22.890625 L 24.671875 -26.953125 C 24.671875 -27.921875 24.984375 -28.726562 25.609375 -29.375 C 26.242188 -30.019531 27.046875 -30.34375 28.015625 -30.34375 Z M 16.765625 -5.5625 C 18.398438 -5.5625 19.828125 -5.96875 21.046875 -6.78125 C 22.273438 -7.601562 23.234375 -8.71875 23.921875 -10.125 C 24.609375 -11.539062 24.953125 -13.125 24.953125 -14.875 C 24.953125 -16.65625 24.609375 -18.25 23.921875 -19.65625 C 23.234375 -21.070312 22.273438 -22.1875 21.046875 -23 C 19.828125 -23.8125 18.398438 -24.21875 16.765625 -24.21875 C 15.171875 -24.21875 13.757812 -23.8125 12.53125 -23 C 11.300781 -22.1875 10.34375 -21.070312 9.65625 -19.65625 C 8.96875 -18.25 8.625 -16.65625 8.625 -14.875 C 8.625 -13.125 8.96875 -11.539062 9.65625 -10.125 C 10.34375 -8.71875 11.300781 -7.601562 12.53125 -6.78125 C 13.757812 -5.96875 15.171875 -5.5625 16.765625 -5.5625 Z M 16.765625 -5.5625 "/></g></g></g><g fill="#0a2a5b" fill-opacity="1"><g transform="translate(335.909175, 87.84927)"><g><path d="M 19.046875 -30.34375 C 21.640625 -30.34375 23.96875 -29.679688 26.03125 -28.359375 C 28.09375 -27.046875 29.726562 -25.238281 30.9375 -22.9375 C 32.144531 -20.632812 32.75 -17.960938 32.75 -14.921875 C 32.75 -11.878906 32.144531 -9.195312 30.9375 -6.875 C 29.726562 -4.550781 28.109375 -2.726562 26.078125 -1.40625 C 24.054688 -0.09375 21.785156 0.5625 19.265625 0.5625 C 17.785156 0.5625 16.394531 0.320312 15.09375 -0.15625 C 13.789062 -0.644531 12.644531 -1.257812 11.65625 -2 C 10.675781 -2.75 9.914062 -3.503906 9.375 -4.265625 C 8.84375 -5.023438 8.578125 -5.664062 8.578125 -6.1875 L 10.296875 -6.90625 L 10.296875 -2.84375 C 10.296875 -1.875 9.976562 -1.0625 9.34375 -0.40625 C 8.71875 0.238281 7.921875 0.5625 6.953125 0.5625 C 5.992188 0.5625 5.195312 0.242188 4.5625 -0.390625 C 3.9375 -1.023438 3.625 -1.84375 3.625 -2.84375 L 3.625 -37.8125 C 3.625 -38.78125 3.9375 -39.585938 4.5625 -40.234375 C 5.195312 -40.878906 5.992188 -41.203125 6.953125 -41.203125 C 7.921875 -41.203125 8.71875 -40.878906 9.34375 -40.234375 C 9.976562 -39.585938 10.296875 -38.78125 10.296875 -37.8125 L 10.296875 -23.671875 L 9.359375 -24.171875 C 9.359375 -24.648438 9.617188 -25.234375 10.140625 -25.921875 C 10.660156 -26.609375 11.363281 -27.296875 12.25 -27.984375 C 13.144531 -28.671875 14.175781 -29.234375 15.34375 -29.671875 C 16.507812 -30.117188 17.742188 -30.34375 19.046875 -30.34375 Z M 18.203125 -24.21875 C 16.578125 -24.21875 15.148438 -23.8125 13.921875 -23 C 12.691406 -22.1875 11.734375 -21.082031 11.046875 -19.6875 C 10.367188 -18.289062 10.03125 -16.703125 10.03125 -14.921875 C 10.03125 -13.179688 10.367188 -11.59375 11.046875 -10.15625 C 11.734375 -8.726562 12.691406 -7.601562 13.921875 -6.78125 C 15.148438 -5.96875 16.578125 -5.5625 18.203125 -5.5625 C 19.835938 -5.5625 21.257812 -5.96875 22.46875 -6.78125 C 23.675781 -7.601562 24.625 -8.726562 25.3125 -10.15625 C 26 -11.59375 26.34375 -13.179688 26.34375 -14.921875 C 26.34375 -16.703125 26 -18.289062 25.3125 -19.6875 C 24.625 -21.082031 23.675781 -22.1875 22.46875 -23 C 21.257812 -23.8125 19.835938 -24.21875 18.203125 -24.21875 Z M 18.203125 -24.21875 "/></g></g></g></svg>