<svg xmlns="http://www.w3.org/2000/svg" xmlns:xlink="http://www.w3.org/1999/xlink" width="500" zoomAndPan="magnify" viewBox="0 0 375 135.000003" height="180" preserveAspectRatio="xMidYMid meet" version="1.0"><defs><g/><clipPath id="20a6c5d032"><path d="M 1.378906 3.574219 L 98.160156 3.574219 L 98.160156 130.136719 L 1.378906 130.136719 Z M 1.378906 3.574219 " clip-rule="nonzero"/></clipPath></defs><g clip-path="url(#20a6c5d032)"><path fill="#ff3131" d="M 1.378906 129.910156 L 50.621094 3.613281 L 98.011719 130.386719 L 50.621094 91.445312 Z M 1.378906 129.910156 " fill-opacity="1" fill-rule="nonzero"/></g><g fill="#ffffff" fill-opacity="1"><g transform="translate(98.021376, 87.84927)"><g><path d="M 17.375 0 C 16.332031 0 15.476562 -0.320312 14.8125 -0.96875 C 14.144531 -1.625 13.8125 -2.429688 13.8125 -3.390625 L 13.8125 -35.703125 L 21.046875 -35.703125 L 21.046875 -3.390625 C 21.046875 -2.429688 20.703125 -1.625 20.015625 -0.96875 C 19.328125 -0.320312 18.445312 0 17.375 0 Z M 5.0625 -32.578125 C 4.101562 -32.578125 3.296875 -32.875 2.640625 -33.46875 C 1.992188 -34.0625 1.671875 -34.84375 1.671875 -35.8125 C 1.671875 -36.769531 1.992188 -37.535156 2.640625 -38.109375 C 3.296875 -38.691406 4.101562 -38.984375 5.0625 -38.984375 L 29.796875 -38.984375 C 30.753906 -38.984375 31.554688 -38.6875 32.203125 -38.09375 C 32.859375 -37.5 33.1875 -36.71875 33.1875 -35.75 C 33.1875 -34.78125 32.859375 -34.007812 32.203125 -33.4375 C 31.554688 -32.863281 30.753906 -32.578125 29.796875 -32.578125 Z M 5.0625 -32.578125 "/></g></g></g><g fill="#ffffff" fill-opacity="1"><g transform="translate(129.539063, 87.84927)"><g><path d="M 6.953125 0 C 5.992188 0 5.195312 -0.320312 4.5625 -0.96875 C 3.9375 -1.625 3.625 -2.429688 3.625 -3.390625 L 3.625 -26.390625 C 3.625 -27.359375 3.9375 -28.164062 4.5625 -28.8125 C 5.195312 -29.46875 5.992188 -29.796875 6.953125 -29.796875 C 7.921875 -29.796875 8.71875 -29.46875 9.34375 -28.8125 C 9.976562 -28.164062 10.296875 -27.359375 10.296875 -26.390625 L 10.296875 -21.15625 L 9.90625 -24.890625 C 10.320312 -25.785156 10.851562 -26.578125 11.5 -27.265625 C 12.144531 -27.953125 12.875 -28.523438 13.6875 -28.984375 C 14.507812 -29.453125 15.382812 -29.796875 16.3125 -30.015625 C 17.238281 -30.234375 18.164062 -30.34375 19.09375 -30.34375 C 20.207031 -30.34375 21.144531 -30.023438 21.90625 -29.390625 C 22.664062 -28.765625 23.046875 -28.023438 23.046875 -27.171875 C 23.046875 -25.953125 22.726562 -25.070312 22.09375 -24.53125 C 21.46875 -23.988281 20.785156 -23.71875 20.046875 -23.71875 C 19.335938 -23.71875 18.695312 -23.847656 18.125 -24.109375 C 17.550781 -24.367188 16.894531 -24.5 16.15625 -24.5 C 15.476562 -24.5 14.796875 -24.34375 14.109375 -24.03125 C 13.429688 -23.71875 12.800781 -23.222656 12.21875 -22.546875 C 11.644531 -21.878906 11.179688 -21.050781 10.828125 -20.0625 C 10.472656 -19.082031 10.296875 -17.925781 10.296875 -16.59375 L 10.296875 -3.390625 C 10.296875 -2.429688 9.976562 -1.625 9.34375 -0.96875 C 8.71875 -0.320312 7.921875 0 6.953125 0 Z M 6.953125 0 "/></g></g></g><g fill="#ffffff" fill-opacity="1"><g transform="translate(153.038197, 87.84927)"><g><path d="M 28.015625 -30.34375 C 28.972656 -30.34375 29.769531 -30.023438 30.40625 -29.390625 C 31.039062 -28.765625 31.359375 -27.953125 31.359375 -26.953125 L 31.359375 -3.390625 C 31.359375 -2.429688 31.039062 -1.625 30.40625 -0.96875 C 29.769531 -0.320312 28.972656 0 28.015625 0 C 27.046875 0 26.242188 -0.320312 25.609375 -0.96875 C 24.984375 -1.625 24.671875 -2.429688 24.671875 -3.390625 L 24.671875 -6.125 L 25.890625 -5.625 C 25.890625 -5.144531 25.628906 -4.5625 25.109375 -3.875 C 24.585938 -3.1875 23.878906 -2.503906 22.984375 -1.828125 C 22.097656 -1.160156 21.050781 -0.59375 19.84375 -0.125 C 18.644531 0.332031 17.335938 0.5625 15.921875 0.5625 C 13.359375 0.5625 11.035156 -0.09375 8.953125 -1.40625 C 6.878906 -2.726562 5.238281 -4.550781 4.03125 -6.875 C 2.832031 -9.195312 2.234375 -11.863281 2.234375 -14.875 C 2.234375 -17.914062 2.832031 -20.59375 4.03125 -22.90625 C 5.238281 -25.226562 6.863281 -27.046875 8.90625 -28.359375 C 10.945312 -29.679688 13.210938 -30.34375 15.703125 -30.34375 C 17.296875 -30.34375 18.757812 -30.101562 20.09375 -29.625 C 21.4375 -29.144531 22.597656 -28.53125 23.578125 -27.78125 C 24.566406 -27.039062 25.328125 -26.289062 25.859375 -25.53125 C 26.398438 -24.769531 26.671875 -24.128906 26.671875 -23.609375 L 24.671875 -22.890625 L 24.671875 -26.953125 C 24.671875 -27.921875 24.984375 -28.726562 25.609375 -29.375 C 26.242188 -30.019531 27.046875 -30.34375 28.015625 -30.34375 Z M 16.765625 -5.5625 C 18.398438 -5.5625 19.828125 -5.96875 21.046875 -6.78125 C 22.273438 -7.601562 23.234375 -8.71875 23.921875 -10.125 C 24.609375 -11.539062 24.953125 -13.125 24.953125 -14.875 C 24.953125 -16.65625 24.609375 -18.25 23.921875 -19.65625 C 23.234375 -21.070312 22.273438 -22.1875 21.046875 -23 C 19.828125 -23.8125 18.398438 -24.21875 16.765625 -24.21875 C 15.171875 -24.21875 13.757812 -23.8125 12.53125 -23 C 11.300781 -22.1875 10.34375 -21.070312 9.65625 -19.65625 C 8.96875 -18.25 8.625 -16.65625 8.625 -14.875 C 8.625 -13.125 8.96875 -11.539062 9.65625 -10.125 C 10.34375 -8.71875 11.300781 -7.601562 12.53125 -6.78125 C 13.757812 -5.96875 15.171875 -5.5625 16.765625 -5.5625 Z M 16.765625 -5.5625 "/></g></g></g><g fill="#ffffff" fill-opacity="1"><g transform="translate(187.340252, 87.84927)"><g><path d="M 4.953125 -29.796875 C 5.660156 -29.796875 6.3125 -29.617188 6.90625 -29.265625 C 7.5 -28.910156 7.941406 -28.378906 8.234375 -27.671875 L 16.421875 -8.96875 L 15.203125 -8.40625 L 23.5625 -27.625 C 24.1875 -29.101562 25.164062 -29.804688 26.5 -29.734375 C 27.4375 -29.734375 28.191406 -29.445312 28.765625 -28.875 C 29.335938 -28.300781 29.625 -27.585938 29.625 -26.734375 C 29.625 -26.472656 29.578125 -26.191406 29.484375 -25.890625 C 29.390625 -25.597656 29.289062 -25.320312 29.1875 -25.0625 L 18.765625 -2.109375 C 18.171875 -0.773438 17.222656 -0.0703125 15.921875 0 C 15.222656 0.113281 14.546875 -0.015625 13.890625 -0.390625 C 13.242188 -0.765625 12.753906 -1.335938 12.421875 -2.109375 L 2.0625 -25.0625 C 1.988281 -25.25 1.90625 -25.488281 1.8125 -25.78125 C 1.71875 -26.082031 1.671875 -26.4375 1.671875 -26.84375 C 1.671875 -27.507812 1.96875 -28.164062 2.5625 -28.8125 C 3.15625 -29.46875 3.953125 -29.796875 4.953125 -29.796875 Z M 4.953125 -29.796875 "/></g></g></g><g fill="#ffffff" fill-opacity="1"><g transform="translate(218.356909, 87.84927)"><g><path d="M 17.65625 0.5625 C 14.5 0.5625 11.757812 -0.09375 9.4375 -1.40625 C 7.113281 -2.726562 5.332031 -4.519531 4.09375 -6.78125 C 2.851562 -9.050781 2.234375 -11.617188 2.234375 -14.484375 C 2.234375 -17.816406 2.910156 -20.660156 4.265625 -23.015625 C 5.617188 -25.378906 7.390625 -27.191406 9.578125 -28.453125 C 11.765625 -29.710938 14.085938 -30.34375 16.546875 -30.34375 C 18.429688 -30.34375 20.21875 -29.953125 21.90625 -29.171875 C 23.601562 -28.398438 25.097656 -27.335938 26.390625 -25.984375 C 27.691406 -24.628906 28.722656 -23.054688 29.484375 -21.265625 C 30.242188 -19.484375 30.625 -17.59375 30.625 -15.59375 C 30.59375 -14.695312 30.238281 -13.96875 29.5625 -13.40625 C 28.894531 -12.851562 28.117188 -12.578125 27.234375 -12.578125 L 5.953125 -12.578125 L 4.28125 -18.15625 L 24.71875 -18.15625 L 23.5 -17.046875 L 23.5 -18.546875 C 23.425781 -19.617188 23.046875 -20.582031 22.359375 -21.4375 C 21.671875 -22.289062 20.816406 -22.96875 19.796875 -23.46875 C 18.773438 -23.96875 17.691406 -24.21875 16.546875 -24.21875 C 15.429688 -24.21875 14.390625 -24.066406 13.421875 -23.765625 C 12.453125 -23.472656 11.613281 -22.972656 10.90625 -22.265625 C 10.207031 -21.566406 9.648438 -20.625 9.234375 -19.4375 C 8.828125 -18.25 8.625 -16.742188 8.625 -14.921875 C 8.625 -12.921875 9.039062 -11.222656 9.875 -9.828125 C 10.71875 -8.429688 11.796875 -7.367188 13.109375 -6.640625 C 14.429688 -5.921875 15.832031 -5.5625 17.3125 -5.5625 C 18.6875 -5.5625 19.78125 -5.671875 20.59375 -5.890625 C 21.414062 -6.117188 22.078125 -6.390625 22.578125 -6.703125 C 23.078125 -7.023438 23.535156 -7.296875 23.953125 -7.515625 C 24.617188 -7.847656 25.25 -8.015625 25.84375 -8.015625 C 26.65625 -8.015625 27.328125 -7.734375 27.859375 -7.171875 C 28.398438 -6.617188 28.671875 -5.972656 28.671875 -5.234375 C 28.671875 -4.234375 28.15625 -3.320312 27.125 -2.5 C 26.15625 -1.6875 24.796875 -0.972656 23.046875 -0.359375 C 21.304688 0.253906 19.507812 0.5625 17.65625 0.5625 Z M 17.65625 0.5625 "/></g></g></g><g fill="#ffffff" fill-opacity="1"><g transform="translate(251.211173, 87.84927)"><g><path d="M 10.859375 -3.390625 C 10.859375 -2.429688 10.53125 -1.625 9.875 -0.96875 C 9.226562 -0.320312 8.425781 0 7.46875 0 C 6.53125 0 5.742188 -0.320312 5.109375 -0.96875 C 4.484375 -1.625 4.171875 -2.429688 4.171875 -3.390625 L 4.171875 -37.8125 C 4.171875 -38.78125 4.492188 -39.585938 5.140625 -40.234375 C 5.796875 -40.878906 6.609375 -41.203125 7.578125 -41.203125 C 8.535156 -41.203125 9.320312 -40.878906 9.9375 -40.234375 C 10.550781 -39.585938 10.859375 -38.78125 10.859375 -37.8125 Z M 10.859375 -3.390625 "/></g></g></g><g fill="#ffffff" fill-opacity="1"><g transform="translate(266.246172, 87.84927)"><g><path d="M 18.484375 -30.234375 L 6.453125 -1.953125 C 6.191406 -1.242188 5.789062 -0.691406 5.25 -0.296875 C 4.71875 0.0859375 4.140625 0.28125 3.515625 0.28125 C 2.503906 0.28125 1.757812 0.00390625 1.28125 -0.546875 C 0.800781 -1.109375 0.5625 -1.800781 0.5625 -2.625 C 0.5625 -2.957031 0.613281 -3.304688 0.71875 -3.671875 L 14.59375 -36.96875 C 14.882812 -37.71875 15.335938 -38.296875 15.953125 -38.703125 C 16.566406 -39.109375 17.226562 -39.273438 17.9375 -39.203125 C 18.601562 -39.203125 19.222656 -39.003906 19.796875 -38.609375 C 20.367188 -38.222656 20.785156 -37.675781 21.046875 -36.96875 L 34.75 -4.34375 C 34.9375 -3.863281 35.03125 -3.414062 35.03125 -3 C 35.03125 -2 34.703125 -1.203125 34.046875 -0.609375 C 33.398438 -0.015625 32.6875 0.28125 31.90625 0.28125 C 31.238281 0.28125 30.632812 0.078125 30.09375 -0.328125 C 29.5625 -0.742188 29.144531 -1.300781 28.84375 -2 L 16.875 -29.90625 Z M 8.1875 -8.75 L 11.25 -15.140625 L 26.28125 -15.140625 L 27.34375 -8.75 Z M 8.1875 -8.75 "/></g></g></g><g fill="#ffffff" fill-opacity="1"><g transform="translate(301.829015, 87.84927)"><g><path d="M 19.046875 -30.34375 C 21.640625 -30.34375 23.96875 -29.679688 26.03125 -28.359375 C 28.09375 -27.046875 29.726562 -25.238281 30.9375 -22.9375 C 32.144531 -20.632812 32.75 -17.960938 32.75 -14.921875 C 32.75 -11.878906 32.144531 -9.195312 30.9375 -6.875 C 29.726562 -4.550781 28.109375 -2.726562 26.078125 -1.40625 C 24.054688 -0.09375 21.785156 0.5625 19.265625 0.5625 C 17.785156 0.5625 16.394531 0.320312 15.09375 -0.15625 C 13.789062 -0.644531 12.644531 -1.257812 11.65625 -2 C 10.675781 -2.75 9.914062 -3.503906 9.375 -4.265625 C 8.84375 -5.023438 8.578125 -5.664062 8.578125 -6.1875 L 10.296875 -6.90625 L 10.296875 7.734375 C 10.296875 8.703125 9.976562 9.507812 9.34375 10.15625 C 8.71875 10.8125 7.921875 11.140625 6.953125 11.140625 C 5.992188 11.140625 5.195312 10.820312 4.5625 10.1875 C 3.9375 9.5625 3.625 8.742188 3.625 7.734375 L 3.625 -26.390625 C 3.625 -27.359375 3.9375 -28.164062 4.5625 -28.8125 C 5.195312 -29.46875 5.992188 -29.796875 6.953125 -29.796875 C 7.921875 -29.796875 8.71875 -29.46875 9.34375 -28.8125 C 9.976562 -28.164062 10.296875 -27.359375 10.296875 -26.390625 L 10.296875 -23.671875 L 9.359375 -24.171875 C 9.359375 -24.648438 9.617188 -25.234375 10.140625 -25.921875 C 10.660156 -26.609375 11.363281 -27.296875 12.25 -27.984375 C 13.144531 -28.671875 14.175781 -29.234375 15.34375 -29.671875 C 16.507812 -30.117188 17.742188 -30.34375 19.046875 -30.34375 Z M 18.203125 -24.21875 C 16.578125 -24.21875 15.148438 -23.8125 13.921875 -23 C 12.691406 -22.1875 11.734375 -21.082031 11.046875 -19.6875 C 10.367188 -18.289062 10.03125 -16.703125 10.03125 -14.921875 C 10.03125 -13.179688 10.367188 -11.59375 11.046875 -10.15625 C 11.734375 -8.726562 12.691406 -7.601562 13.921875 -6.78125 C 15.148438 -5.96875 16.578125 -5.5625 18.203125 -5.5625 C 19.835938 -5.5625 21.257812 -5.96875 22.46875 -6.78125 C 23.675781 -7.601562 24.625 -8.726562 25.3125 -10.15625 C 26 -11.59375 26.34375 -13.179688 26.34375 -14.921875 C 26.34375 -16.703125 26 -18.289062 25.3125 -19.6875 C 24.625 -21.082031 23.675781 -22.1875 22.46875 -23 C 21.257812 -23.8125 19.835938 -24.21875 18.203125 -24.21875 Z M 18.203125 -24.21875 "/></g></g></g><g fill="#ffffff" fill-opacity="1"><g transform="translate(336.799308, 87.84927)"><g><path d="M 19.046875 -30.34375 C 21.640625 -30.34375 23.96875 -29.679688 26.03125 -28.359375 C 28.09375 -27.046875 29.726562 -25.238281 30.9375 -22.9375 C 32.144531 -20.632812 32.75 -17.960938 32.75 -14.921875 C 32.75 -11.878906 32.144531 -9.195312 30.9375 -6.875 C 29.726562 -4.550781 28.109375 -2.726562 26.078125 -1.40625 C 24.054688 -0.09375 21.785156 0.5625 19.265625 0.5625 C 17.785156 0.5625 16.394531 0.320312 15.09375 -0.15625 C 13.789062 -0.644531 12.644531 -1.257812 11.65625 -2 C 10.675781 -2.75 9.914062 -3.503906 9.375 -4.265625 C 8.84375 -5.023438 8.578125 -5.664062 8.578125 -6.1875 L 10.296875 -6.90625 L 10.296875 7.734375 C 10.296875 8.703125 9.976562 9.507812 9.34375 10.15625 C 8.71875 10.8125 7.921875 11.140625 6.953125 11.140625 C 5.992188 11.140625 5.195312 10.820312 4.5625 10.1875 C 3.9375 9.5625 3.625 8.742188 3.625 7.734375 L 3.625 -26.390625 C 3.625 -27.359375 3.9375 -28.164062 4.5625 -28.8125 C 5.195312 -29.46875 5.992188 -29.796875 6.953125 -29.796875 C 7.921875 -29.796875 8.71875 -29.46875 9.34375 -28.8125 C 9.976562 -28.164062 10.296875 -27.359375 10.296875 -26.390625 L 10.296875 -23.671875 L 9.359375 -24.171875 C 9.359375 -24.648438 9.617188 -25.234375 10.140625 -25.921875 C 10.660156 -26.609375 11.363281 -27.296875 12.25 -27.984375 C 13.144531 -28.671875 14.175781 -29.234375 15.34375 -29.671875 C 16.507812 -30.117188 17.742188 -30.34375 19.046875 -30.34375 Z M 18.203125 -24.21875 C 16.578125 -24.21875 15.148438 -23.8125 13.921875 -23 C 12.691406 -22.1875 11.734375 -21.082031 11.046875 -19.6875 C 10.367188 -18.289062 10.03125 -16.703125 10.03125 -14.921875 C 10.03125 -13.179688 10.367188 -11.59375 11.046875 -10.15625 C 11.734375 -8.726562 12.691406 -7.601562 13.921875 -6.78125 C 15.148438 -5.96875 16.578125 -5.5625 18.203125 -5.5625 C 19.835938 -5.5625 21.257812 -5.96875 22.46875 -6.78125 C 23.675781 -7.601562 24.625 -8.726562 25.3125 -10.15625 C 26 -11.59375 26.34375 -13.179688 26.34375 -14.921875 C 26.34375 -16.703125 26 -18.289062 25.3125 -19.6875 C 24.625 -21.082031 23.675781 -22.1875 22.46875 -23 C 21.257812 -23.8125 19.835938 -24.21875 18.203125 -24.21875 Z M 18.203125 -24.21875 "/></g></g></g><g fill="#ff3131" fill-opacity="1"><g transform="translate(223.608167, 123.682662)"><g><path d="M 3.625 -20.5 L 14.375 -20.5 C 14.613281 -20.5 14.816406 -20.414062 14.984375 -20.25 C 15.160156 -20.082031 15.25 -19.875 15.25 -19.625 C 15.25 -19.363281 15.160156 -19.15625 14.984375 -19 C 14.816406 -18.84375 14.613281 -18.765625 14.375 -18.765625 L 4.296875 -18.765625 L 4.59375 -19.265625 L 4.59375 -11.03125 L 4.28125 -11.421875 L 13.0625 -11.421875 C 13.289062 -11.421875 13.492188 -11.332031 13.671875 -11.15625 C 13.847656 -10.976562 13.9375 -10.773438 13.9375 -10.546875 C 13.9375 -10.285156 13.847656 -10.078125 13.671875 -9.921875 C 13.492188 -9.765625 13.289062 -9.6875 13.0625 -9.6875 L 4.328125 -9.6875 L 4.59375 -9.984375 L 4.59375 -1.546875 L 4.453125 -1.734375 L 14.375 -1.734375 C 14.613281 -1.734375 14.816406 -1.644531 14.984375 -1.46875 C 15.160156 -1.289062 15.25 -1.082031 15.25 -0.84375 C 15.25 -0.59375 15.160156 -0.390625 14.984375 -0.234375 C 14.816406 -0.078125 14.613281 0 14.375 0 L 3.625 0 C 3.394531 0 3.191406 -0.0859375 3.015625 -0.265625 C 2.835938 -0.441406 2.75 -0.644531 2.75 -0.875 L 2.75 -19.625 C 2.75 -19.851562 2.835938 -20.054688 3.015625 -20.234375 C 3.191406 -20.410156 3.394531 -20.5 3.625 -20.5 Z M 3.625 -20.5 "/></g></g></g><g fill="#ff3131" fill-opacity="1"><g transform="translate(240.23875, 123.682662)"><g><path d="M 1.90625 -15.109375 C 2.195312 -15.109375 2.429688 -14.984375 2.609375 -14.734375 L 12.96875 -1.3125 C 13.101562 -1.15625 13.171875 -0.984375 13.171875 -0.796875 C 13.171875 -0.554688 13.082031 -0.347656 12.90625 -0.171875 C 12.738281 0.00390625 12.535156 0.09375 12.296875 0.09375 C 12.023438 0.09375 11.78125 -0.0351562 11.5625 -0.296875 L 1.171875 -13.703125 C 1.054688 -13.835938 1 -14.015625 1 -14.234375 C 1 -14.484375 1.085938 -14.691406 1.265625 -14.859375 C 1.453125 -15.023438 1.664062 -15.109375 1.90625 -15.109375 Z M 1.90625 0.09375 C 1.707031 0.09375 1.515625 0.0234375 1.328125 -0.109375 C 1.140625 -0.253906 1.046875 -0.453125 1.046875 -0.703125 C 1.046875 -0.921875 1.117188 -1.109375 1.265625 -1.265625 L 6.203125 -7.609375 L 7.171875 -6.203125 L 2.609375 -0.265625 C 2.429688 -0.0234375 2.195312 0.09375 1.90625 0.09375 Z M 12.296875 -15.109375 C 12.546875 -15.109375 12.742188 -15.035156 12.890625 -14.890625 C 13.046875 -14.742188 13.125 -14.5625 13.125 -14.34375 C 13.125 -14.25 13.109375 -14.148438 13.078125 -14.046875 C 13.046875 -13.953125 12.988281 -13.867188 12.90625 -13.796875 L 7.96875 -7.296875 L 7.0625 -8.703125 L 11.5625 -14.734375 C 11.78125 -14.984375 12.023438 -15.109375 12.296875 -15.109375 Z M 12.296875 -15.109375 "/></g></g></g><g fill="#ff3131" fill-opacity="1"><g transform="translate(254.409883, 123.682662)"><g><path d="M 9.421875 -15.078125 C 10.753906 -15.078125 11.929688 -14.75 12.953125 -14.09375 C 13.984375 -13.445312 14.800781 -12.550781 15.40625 -11.40625 C 16.007812 -10.257812 16.3125 -8.945312 16.3125 -7.46875 C 16.3125 -5.976562 16.007812 -4.65625 15.40625 -3.5 C 14.800781 -2.351562 13.976562 -1.445312 12.9375 -0.78125 C 11.90625 -0.125 10.742188 0.203125 9.453125 0.203125 C 8.773438 0.203125 8.128906 0.101562 7.515625 -0.09375 C 6.898438 -0.300781 6.335938 -0.582031 5.828125 -0.9375 C 5.316406 -1.289062 4.863281 -1.707031 4.46875 -2.1875 C 4.082031 -2.664062 3.773438 -3.1875 3.546875 -3.75 L 4.0625 -4.125 L 4.0625 4.984375 C 4.0625 5.210938 3.976562 5.414062 3.8125 5.59375 C 3.65625 5.769531 3.445312 5.859375 3.1875 5.859375 C 2.9375 5.859375 2.726562 5.769531 2.5625 5.59375 C 2.394531 5.414062 2.3125 5.210938 2.3125 4.984375 L 2.3125 -14.109375 C 2.3125 -14.367188 2.390625 -14.582031 2.546875 -14.75 C 2.703125 -14.925781 2.914062 -15.015625 3.1875 -15.015625 C 3.445312 -15.015625 3.65625 -14.925781 3.8125 -14.75 C 3.976562 -14.582031 4.0625 -14.367188 4.0625 -14.109375 L 4.0625 -10.953125 L 3.65625 -11.1875 C 3.851562 -11.789062 4.140625 -12.332031 4.515625 -12.8125 C 4.898438 -13.289062 5.347656 -13.695312 5.859375 -14.03125 C 6.367188 -14.375 6.925781 -14.632812 7.53125 -14.8125 C 8.132812 -14.988281 8.765625 -15.078125 9.421875 -15.078125 Z M 9.28125 -13.4375 C 8.226562 -13.4375 7.300781 -13.175781 6.5 -12.65625 C 5.695312 -12.144531 5.066406 -11.441406 4.609375 -10.546875 C 4.148438 -9.660156 3.921875 -8.632812 3.921875 -7.46875 C 3.921875 -6.3125 4.148438 -5.273438 4.609375 -4.359375 C 5.066406 -3.441406 5.695312 -2.722656 6.5 -2.203125 C 7.300781 -1.691406 8.226562 -1.4375 9.28125 -1.4375 C 10.3125 -1.4375 11.222656 -1.691406 12.015625 -2.203125 C 12.804688 -2.722656 13.4375 -3.441406 13.90625 -4.359375 C 14.375 -5.273438 14.609375 -6.3125 14.609375 -7.46875 C 14.609375 -8.613281 14.375 -9.632812 13.90625 -10.53125 C 13.4375 -11.4375 12.804688 -12.144531 12.015625 -12.65625 C 11.222656 -13.175781 10.3125 -13.4375 9.28125 -13.4375 Z M 9.28125 -13.4375 "/></g></g></g><g fill="#ff3131" fill-opacity="1"><g transform="translate(272.15307, 123.682662)"><g><path d="M 9.078125 0.296875 C 7.578125 0.296875 6.25 -0.0234375 5.09375 -0.671875 C 3.945312 -1.316406 3.050781 -2.210938 2.40625 -3.359375 C 1.757812 -4.515625 1.4375 -5.863281 1.4375 -7.40625 C 1.4375 -9.0625 1.757812 -10.472656 2.40625 -11.640625 C 3.0625 -12.816406 3.910156 -13.722656 4.953125 -14.359375 C 6.003906 -14.992188 7.113281 -15.3125 8.28125 -15.3125 C 9.144531 -15.3125 9.976562 -15.160156 10.78125 -14.859375 C 11.59375 -14.554688 12.316406 -14.109375 12.953125 -13.515625 C 13.585938 -12.921875 14.09375 -12.191406 14.46875 -11.328125 C 14.851562 -10.472656 15.066406 -9.476562 15.109375 -8.34375 C 15.085938 -8.113281 14.988281 -7.914062 14.8125 -7.75 C 14.632812 -7.582031 14.429688 -7.5 14.203125 -7.5 L 2.453125 -7.5 L 2.109375 -9.078125 L 13.640625 -9.078125 L 13.265625 -8.71875 L 13.265625 -9.3125 C 13.179688 -10.226562 12.882812 -11.007812 12.375 -11.65625 C 11.875 -12.300781 11.257812 -12.785156 10.53125 -13.109375 C 9.8125 -13.441406 9.0625 -13.609375 8.28125 -13.609375 C 7.695312 -13.609375 7.097656 -13.488281 6.484375 -13.25 C 5.867188 -13.019531 5.3125 -12.65625 4.8125 -12.15625 C 4.3125 -11.664062 3.90625 -11.035156 3.59375 -10.265625 C 3.289062 -9.492188 3.140625 -8.582031 3.140625 -7.53125 C 3.140625 -6.375 3.367188 -5.328125 3.828125 -4.390625 C 4.296875 -3.453125 4.972656 -2.707031 5.859375 -2.15625 C 6.753906 -1.613281 7.816406 -1.34375 9.046875 -1.34375 C 9.734375 -1.34375 10.347656 -1.441406 10.890625 -1.640625 C 11.441406 -1.835938 11.921875 -2.097656 12.328125 -2.421875 C 12.734375 -2.742188 13.078125 -3.078125 13.359375 -3.421875 C 13.566406 -3.597656 13.78125 -3.6875 14 -3.6875 C 14.195312 -3.6875 14.367188 -3.609375 14.515625 -3.453125 C 14.660156 -3.296875 14.734375 -3.117188 14.734375 -2.921875 C 14.734375 -2.691406 14.632812 -2.488281 14.4375 -2.3125 C 13.851562 -1.613281 13.09375 -1.003906 12.15625 -0.484375 C 11.21875 0.0351562 10.191406 0.296875 9.078125 0.296875 Z M 9.078125 0.296875 "/></g></g></g><g fill="#ff3131" fill-opacity="1"><g transform="translate(288.695818, 123.682662)"><g><path d="M 3.1875 0 C 2.914062 0 2.703125 -0.0859375 2.546875 -0.265625 C 2.390625 -0.441406 2.3125 -0.644531 2.3125 -0.875 L 2.3125 -14 C 2.3125 -14.226562 2.394531 -14.429688 2.5625 -14.609375 C 2.726562 -14.785156 2.9375 -14.875 3.1875 -14.875 C 3.445312 -14.875 3.65625 -14.785156 3.8125 -14.609375 C 3.976562 -14.429688 4.0625 -14.226562 4.0625 -14 L 4.0625 -9.609375 L 3.625 -9.515625 C 3.6875 -10.203125 3.859375 -10.878906 4.140625 -11.546875 C 4.421875 -12.222656 4.804688 -12.84375 5.296875 -13.40625 C 5.785156 -13.976562 6.363281 -14.4375 7.03125 -14.78125 C 7.707031 -15.132812 8.46875 -15.3125 9.3125 -15.3125 C 9.664062 -15.3125 10.003906 -15.238281 10.328125 -15.09375 C 10.660156 -14.945312 10.828125 -14.707031 10.828125 -14.375 C 10.828125 -14.082031 10.75 -13.859375 10.59375 -13.703125 C 10.4375 -13.546875 10.253906 -13.46875 10.046875 -13.46875 C 9.867188 -13.46875 9.675781 -13.515625 9.46875 -13.609375 C 9.269531 -13.710938 9.003906 -13.765625 8.671875 -13.765625 C 8.117188 -13.765625 7.566406 -13.601562 7.015625 -13.28125 C 6.472656 -12.957031 5.976562 -12.519531 5.53125 -11.96875 C 5.082031 -11.425781 4.722656 -10.816406 4.453125 -10.140625 C 4.191406 -9.472656 4.0625 -8.796875 4.0625 -8.109375 L 4.0625 -0.875 C 4.0625 -0.644531 3.972656 -0.441406 3.796875 -0.265625 C 3.628906 -0.0859375 3.425781 0 3.1875 0 Z M 3.1875 0 "/></g></g></g><g fill="#ff3131" fill-opacity="1"><g transform="translate(299.968302, 123.682662)"><g><path d="M 4.015625 -0.875 C 4.015625 -0.644531 3.925781 -0.441406 3.75 -0.265625 C 3.570312 -0.0859375 3.367188 0 3.140625 0 C 2.878906 0 2.664062 -0.0859375 2.5 -0.265625 C 2.332031 -0.441406 2.25 -0.644531 2.25 -0.875 L 2.25 -14.34375 C 2.25 -14.582031 2.332031 -14.785156 2.5 -14.953125 C 2.664062 -15.128906 2.878906 -15.21875 3.140625 -15.21875 C 3.390625 -15.21875 3.597656 -15.128906 3.765625 -14.953125 C 3.929688 -14.785156 4.015625 -14.582031 4.015625 -14.34375 Z M 3.125 -17.1875 C 2.71875 -17.1875 2.410156 -17.28125 2.203125 -17.46875 C 2.003906 -17.65625 1.90625 -17.921875 1.90625 -18.265625 L 1.90625 -18.5625 C 1.90625 -18.914062 2.015625 -19.179688 2.234375 -19.359375 C 2.460938 -19.546875 2.769531 -19.640625 3.15625 -19.640625 C 3.53125 -19.640625 3.816406 -19.546875 4.015625 -19.359375 C 4.222656 -19.179688 4.328125 -18.914062 4.328125 -18.5625 L 4.328125 -18.265625 C 4.328125 -17.921875 4.222656 -17.65625 4.015625 -17.46875 C 3.816406 -17.28125 3.519531 -17.1875 3.125 -17.1875 Z M 3.125 -17.1875 "/></g></g></g><g fill="#ff3131" fill-opacity="1"><g transform="translate(306.234049, 123.682662)"><g><path d="M 9.078125 0.296875 C 7.578125 0.296875 6.25 -0.0234375 5.09375 -0.671875 C 3.945312 -1.316406 3.050781 -2.210938 2.40625 -3.359375 C 1.757812 -4.515625 1.4375 -5.863281 1.4375 -7.40625 C 1.4375 -9.0625 1.757812 -10.472656 2.40625 -11.640625 C 3.0625 -12.816406 3.910156 -13.722656 4.953125 -14.359375 C 6.003906 -14.992188 7.113281 -15.3125 8.28125 -15.3125 C 9.144531 -15.3125 9.976562 -15.160156 10.78125 -14.859375 C 11.59375 -14.554688 12.316406 -14.109375 12.953125 -13.515625 C 13.585938 -12.921875 14.09375 -12.191406 14.46875 -11.328125 C 14.851562 -10.472656 15.066406 -9.476562 15.109375 -8.34375 C 15.085938 -8.113281 14.988281 -7.914062 14.8125 -7.75 C 14.632812 -7.582031 14.429688 -7.5 14.203125 -7.5 L 2.453125 -7.5 L 2.109375 -9.078125 L 13.640625 -9.078125 L 13.265625 -8.71875 L 13.265625 -9.3125 C 13.179688 -10.226562 12.882812 -11.007812 12.375 -11.65625 C 11.875 -12.300781 11.257812 -12.785156 10.53125 -13.109375 C 9.8125 -13.441406 9.0625 -13.609375 8.28125 -13.609375 C 7.695312 -13.609375 7.097656 -13.488281 6.484375 -13.25 C 5.867188 -13.019531 5.3125 -12.65625 4.8125 -12.15625 C 4.3125 -11.664062 3.90625 -11.035156 3.59375 -10.265625 C 3.289062 -9.492188 3.140625 -8.582031 3.140625 -7.53125 C 3.140625 -6.375 3.367188 -5.328125 3.828125 -4.390625 C 4.296875 -3.453125 4.972656 -2.707031 5.859375 -2.15625 C 6.753906 -1.613281 7.816406 -1.34375 9.046875 -1.34375 C 9.734375 -1.34375 10.347656 -1.441406 10.890625 -1.640625 C 11.441406 -1.835938 11.921875 -2.097656 12.328125 -2.421875 C 12.734375 -2.742188 13.078125 -3.078125 13.359375 -3.421875 C 13.566406 -3.597656 13.78125 -3.6875 14 -3.6875 C 14.195312 -3.6875 14.367188 -3.609375 14.515625 -3.453125 C 14.660156 -3.296875 14.734375 -3.117188 14.734375 -2.921875 C 14.734375 -2.691406 14.632812 -2.488281 14.4375 -2.3125 C 13.851562 -1.613281 13.09375 -1.003906 12.15625 -0.484375 C 11.21875 0.0351562 10.191406 0.296875 9.078125 0.296875 Z M 9.078125 0.296875 "/></g></g></g><g fill="#ff3131" fill-opacity="1"><g transform="translate(322.776797, 123.682662)"><g><path d="M 9.375 -15.3125 C 10.65625 -15.3125 11.679688 -15.050781 12.453125 -14.53125 C 13.222656 -14.019531 13.78125 -13.316406 14.125 -12.421875 C 14.46875 -11.535156 14.640625 -10.554688 14.640625 -9.484375 L 14.640625 -0.875 C 14.640625 -0.644531 14.550781 -0.441406 14.375 -0.265625 C 14.195312 -0.0859375 13.992188 0 13.765625 0 C 13.492188 0 13.28125 -0.0859375 13.125 -0.265625 C 12.96875 -0.441406 12.890625 -0.644531 12.890625 -0.875 L 12.890625 -9.40625 C 12.890625 -10.1875 12.757812 -10.894531 12.5 -11.53125 C 12.25 -12.175781 11.832031 -12.691406 11.25 -13.078125 C 10.675781 -13.472656 9.921875 -13.671875 8.984375 -13.671875 C 8.148438 -13.671875 7.351562 -13.472656 6.59375 -13.078125 C 5.84375 -12.691406 5.234375 -12.175781 4.765625 -11.53125 C 4.296875 -10.894531 4.0625 -10.1875 4.0625 -9.40625 L 4.0625 -0.875 C 4.0625 -0.644531 3.972656 -0.441406 3.796875 -0.265625 C 3.628906 -0.0859375 3.425781 0 3.1875 0 C 2.914062 0 2.703125 -0.0859375 2.546875 -0.265625 C 2.390625 -0.441406 2.3125 -0.644531 2.3125 -0.875 L 2.3125 -14 C 2.3125 -14.226562 2.394531 -14.429688 2.5625 -14.609375 C 2.726562 -14.785156 2.9375 -14.875 3.1875 -14.875 C 3.445312 -14.875 3.65625 -14.785156 3.8125 -14.609375 C 3.976562 -14.429688 4.0625 -14.226562 4.0625 -14 L 4.0625 -11.53125 L 3.390625 -10.484375 C 3.429688 -11.109375 3.628906 -11.707031 3.984375 -12.28125 C 4.347656 -12.851562 4.8125 -13.367188 5.375 -13.828125 C 5.945312 -14.296875 6.578125 -14.660156 7.265625 -14.921875 C 7.960938 -15.179688 8.664062 -15.3125 9.375 -15.3125 Z M 9.375 -15.3125 "/></g></g></g><g fill="#ff3131" fill-opacity="1"><g transform="translate(339.700171, 123.682662)"><g><path d="M 8.90625 -15.3125 C 9.84375 -15.3125 10.703125 -15.207031 11.484375 -15 C 12.265625 -14.800781 12.890625 -14.523438 13.359375 -14.171875 C 13.835938 -13.816406 14.078125 -13.4375 14.078125 -13.03125 C 14.078125 -12.832031 14.007812 -12.640625 13.875 -12.453125 C 13.738281 -12.273438 13.554688 -12.1875 13.328125 -12.1875 C 13.085938 -12.1875 12.894531 -12.242188 12.75 -12.359375 C 12.601562 -12.472656 12.457031 -12.609375 12.3125 -12.765625 C 12.164062 -12.921875 11.957031 -13.066406 11.6875 -13.203125 C 11.425781 -13.316406 11.0625 -13.421875 10.59375 -13.515625 C 10.125 -13.617188 9.585938 -13.671875 8.984375 -13.671875 C 7.890625 -13.671875 6.90625 -13.394531 6.03125 -12.84375 C 5.15625 -12.300781 4.460938 -11.566406 3.953125 -10.640625 C 3.441406 -9.710938 3.1875 -8.675781 3.1875 -7.53125 C 3.1875 -6.351562 3.429688 -5.296875 3.921875 -4.359375 C 4.410156 -3.421875 5.082031 -2.679688 5.9375 -2.140625 C 6.800781 -1.609375 7.804688 -1.34375 8.953125 -1.34375 C 9.734375 -1.34375 10.335938 -1.410156 10.765625 -1.546875 C 11.203125 -1.679688 11.578125 -1.835938 11.890625 -2.015625 C 12.253906 -2.234375 12.519531 -2.441406 12.6875 -2.640625 C 12.851562 -2.847656 13.078125 -2.953125 13.359375 -2.953125 C 13.609375 -2.953125 13.796875 -2.878906 13.921875 -2.734375 C 14.046875 -2.585938 14.109375 -2.398438 14.109375 -2.171875 C 14.109375 -1.859375 13.878906 -1.507812 13.421875 -1.125 C 12.960938 -0.75 12.332031 -0.414062 11.53125 -0.125 C 10.738281 0.15625 9.820312 0.296875 8.78125 0.296875 C 7.320312 0.296875 6.039062 -0.0390625 4.9375 -0.71875 C 3.832031 -1.40625 2.972656 -2.335938 2.359375 -3.515625 C 1.742188 -4.703125 1.4375 -6.039062 1.4375 -7.53125 C 1.4375 -8.945312 1.75 -10.238281 2.375 -11.40625 C 3 -12.582031 3.867188 -13.523438 4.984375 -14.234375 C 6.109375 -14.953125 7.414062 -15.3125 8.90625 -15.3125 Z M 8.90625 -15.3125 "/></g></g></g><g fill="#ff3131" fill-opacity="1"><g transform="translate(354.866787, 123.682662)"><g><path d="M 9.078125 0.296875 C 7.578125 0.296875 6.25 -0.0234375 5.09375 -0.671875 C 3.945312 -1.316406 3.050781 -2.210938 2.40625 -3.359375 C 1.757812 -4.515625 1.4375 -5.863281 1.4375 -7.40625 C 1.4375 -9.0625 1.757812 -10.472656 2.40625 -11.640625 C 3.0625 -12.816406 3.910156 -13.722656 4.953125 -14.359375 C 6.003906 -14.992188 7.113281 -15.3125 8.28125 -15.3125 C 9.144531 -15.3125 9.976562 -15.160156 10.78125 -14.859375 C 11.59375 -14.554688 12.316406 -14.109375 12.953125 -13.515625 C 13.585938 -12.921875 14.09375 -12.191406 14.46875 -11.328125 C 14.851562 -10.472656 15.066406 -9.476562 15.109375 -8.34375 C 15.085938 -8.113281 14.988281 -7.914062 14.8125 -7.75 C 14.632812 -7.582031 14.429688 -7.5 14.203125 -7.5 L 2.453125 -7.5 L 2.109375 -9.078125 L 13.640625 -9.078125 L 13.265625 -8.71875 L 13.265625 -9.3125 C 13.179688 -10.226562 12.882812 -11.007812 12.375 -11.65625 C 11.875 -12.300781 11.257812 -12.785156 10.53125 -13.109375 C 9.8125 -13.441406 9.0625 -13.609375 8.28125 -13.609375 C 7.695312 -13.609375 7.097656 -13.488281 6.484375 -13.25 C 5.867188 -13.019531 5.3125 -12.65625 4.8125 -12.15625 C 4.3125 -11.664062 3.90625 -11.035156 3.59375 -10.265625 C 3.289062 -9.492188 3.140625 -8.582031 3.140625 -7.53125 C 3.140625 -6.375 3.367188 -5.328125 3.828125 -4.390625 C 4.296875 -3.453125 4.972656 -2.707031 5.859375 -2.15625 C 6.753906 -1.613281 7.816406 -1.34375 9.046875 -1.34375 C 9.734375 -1.34375 10.347656 -1.441406 10.890625 -1.640625 C 11.441406 -1.835938 11.921875 -2.097656 12.328125 -2.421875 C 12.734375 -2.742188 13.078125 -3.078125 13.359375 -3.421875 C 13.566406 -3.597656 13.78125 -3.6875 14 -3.6875 C 14.195312 -3.6875 14.367188 -3.609375 14.515625 -3.453125 C 14.660156 -3.296875 14.734375 -3.117188 14.734375 -2.921875 C 14.734375 -2.691406 14.632812 -2.488281 14.4375 -2.3125 C 13.851562 -1.613281 13.09375 -1.003906 12.15625 -0.484375 C 11.21875 0.0351562 10.191406 0.296875 9.078125 0.296875 Z M 9.078125 0.296875 "/></g></g></g></svg>